<?xml version="1.0" standalone="no"?>
<!DOCTYPE svg PUBLIC "-//W3C//DTD SVG 20010904//EN"
 "http://www.w3.org/TR/2001/REC-SVG-20010904/DTD/svg10.dtd">
<svg version="1.0" xmlns="http://www.w3.org/2000/svg"
 width="428.000000pt" height="263.000000pt" viewBox="0 0 428.000000 263.000000"
 preserveAspectRatio="xMidYMid meet">
<metadata>
Created by potrace 1.16, written by Peter Selinger 2001-2019
</metadata>
<g transform="translate(0.000000,263.000000) scale(0.100000,-0.100000)"
fill="#000000" stroke="none">
<path d="M723 2585 c0 -22 2 -30 4 -17 2 12 2 30 0 40 -3 9 -5 -1 -4 -23z"/>
<path d="M1433 2585 c0 -22 2 -30 4 -17 2 12 2 30 0 40 -3 9 -5 -1 -4 -23z"/>
<path d="M1633 2585 c0 -22 2 -30 4 -17 2 12 2 30 0 40 -3 9 -5 -1 -4 -23z"/>
<path d="M1861 2586 c0 -22 0 -37 2 -35 1 2 9 13 17 23 8 11 10 17 3 13 -7 -5
-13 1 -16 15 -3 14 -5 7 -6 -16z"/>
<path d="M2810 2585 c0 -19 4 -35 8 -35 4 0 6 16 4 35 -2 19 -6 35 -8 35 -2 0
-4 -16 -4 -35z"/>
<path d="M2931 2601 c-7 -13 -7 -23 2 -35 10 -14 12 -11 12 19 0 40 -1 41 -14
16z"/>
<path d="M3011 2588 c-1 -21 3 -38 9 -38 5 0 7 7 4 15 -4 9 0 15 7 15 10 0 10
3 3 8 -6 4 -14 14 -17 22 -3 8 -6 -2 -6 -22z"/>
<path d="M3082 2595 c0 -16 2 -22 5 -12 2 9 2 23 0 30 -3 6 -5 -1 -5 -18z"/>
<path d="M414 2588 c-4 -7 -3 -8 4 -4 11 6 16 -6 13 -26 0 -5 4 -8 9 -8 6 0
10 9 10 19 0 22 -26 35 -36 19z"/>
<path d="M530 2590 c0 -5 6 -10 14 -10 8 0 17 -6 19 -12 4 -10 6 -10 6 -1 1 7
-8 17 -19 23 -14 7 -20 7 -20 0z"/>
<path d="M872 2575 c0 -16 2 -22 5 -12 2 9 2 23 0 30 -3 6 -5 -1 -5 -18z"/>
<path d="M1202 2575 c0 -16 2 -22 5 -12 2 9 2 23 0 30 -3 6 -5 -1 -5 -18z"/>
<path d="M592 2570 c0 -14 2 -19 5 -12 2 6 2 18 0 25 -3 6 -5 1 -5 -13z"/>
<path d="M622 2570 c0 -14 2 -19 5 -12 2 6 2 18 0 25 -3 6 -5 1 -5 -13z"/>
<path d="M654 2566 c1 -14 9 -20 28 -20 14 -1 24 2 21 7 -3 5 -14 7 -24 4 -11
-3 -19 1 -22 12 -3 11 -4 10 -3 -3z"/>
<path d="M820 2586 c0 -3 9 -10 20 -16 11 -6 20 -8 20 -6 0 3 -9 10 -20 16
-11 6 -20 8 -20 6z"/>
<path d="M962 2560 c0 -19 2 -27 5 -17 2 9 2 25 0 35 -3 9 -5 1 -5 -18z"/>
<path d="M992 2570 c0 -14 2 -19 5 -12 2 6 2 18 0 25 -3 6 -5 1 -5 -13z"/>
<path d="M1052 2570 c0 -14 2 -19 5 -12 2 6 2 18 0 25 -3 6 -5 1 -5 -13z"/>
<path d="M1092 2570 c0 -14 2 -19 5 -12 2 6 2 18 0 25 -3 6 -5 1 -5 -13z"/>
<path d="M1122 2570 c0 -14 2 -19 5 -12 2 6 2 18 0 25 -3 6 -5 1 -5 -13z"/>
<path d="M1142 2570 c0 -14 2 -19 5 -12 2 6 2 18 0 25 -3 6 -5 1 -5 -13z"/>
<path d="M1172 2570 c0 -14 2 -19 5 -12 2 6 2 18 0 25 -3 6 -5 1 -5 -13z"/>
<path d="M1242 2570 c0 -14 2 -19 5 -12 2 6 2 18 0 25 -3 6 -5 1 -5 -13z"/>
<path d="M1272 2570 c0 -14 2 -19 5 -12 2 6 2 18 0 25 -3 6 -5 1 -5 -13z"/>
<path d="M1302 2570 c0 -14 2 -19 5 -12 2 6 2 18 0 25 -3 6 -5 1 -5 -13z"/>
<path d="M1462 2570 c0 -14 2 -19 5 -12 2 6 2 18 0 25 -3 6 -5 1 -5 -13z"/>
<path d="M1532 2570 c0 -14 2 -19 5 -12 2 6 2 18 0 25 -3 6 -5 1 -5 -13z"/>
<path d="M1562 2570 c0 -14 2 -19 5 -12 2 6 2 18 0 25 -3 6 -5 1 -5 -13z"/>
<path d="M1584 2579 c-3 -6 -2 -15 3 -20 5 -5 9 -1 9 11 0 23 -2 24 -12 9z"/>
<path d="M1662 2570 c0 -14 2 -19 5 -12 2 6 2 18 0 25 -3 6 -5 1 -5 -13z"/>
<path d="M1692 2570 c0 -14 2 -19 5 -12 2 6 2 18 0 25 -3 6 -5 1 -5 -13z"/>
<path d="M1722 2570 c0 -14 2 -19 5 -12 2 6 2 18 0 25 -3 6 -5 1 -5 -13z"/>
<path d="M1790 2570 c0 -11 4 -20 9 -20 5 0 7 9 4 20 -3 11 -7 20 -9 20 -2 0
-4 -9 -4 -20z"/>
<path d="M1822 2570 c0 -14 2 -19 5 -12 2 6 2 18 0 25 -3 6 -5 1 -5 -13z"/>
<path d="M2847 2571 c-4 -17 -3 -21 5 -13 5 5 8 16 6 23 -3 8 -7 3 -11 -10z"/>
<path d="M3184 2579 c-3 -6 -2 -15 3 -20 5 -5 9 -1 9 11 0 23 -2 24 -12 9z"/>
<path d="M3292 2570 c0 -14 2 -19 5 -12 2 6 2 18 0 25 -3 6 -5 1 -5 -13z"/>
<path d="M3322 2570 c0 -14 2 -19 5 -12 2 6 2 18 0 25 -3 6 -5 1 -5 -13z"/>
<path d="M3372 2560 c0 -19 2 -27 5 -17 2 9 2 25 0 35 -3 9 -5 1 -5 -18z"/>
<path d="M3402 2570 c0 -14 2 -19 5 -12 2 6 2 18 0 25 -3 6 -5 1 -5 -13z"/>
<path d="M3450 2570 c0 -11 4 -20 9 -20 5 0 7 9 4 20 -3 11 -7 20 -9 20 -2 0
-4 -9 -4 -20z"/>
<path d="M3482 2570 c0 -14 2 -19 5 -12 2 6 2 18 0 25 -3 6 -5 1 -5 -13z"/>
<path d="M3522 2570 c0 -14 2 -19 5 -12 2 6 2 18 0 25 -3 6 -5 1 -5 -13z"/>
<path d="M3554 2576 c24 -19 36 -20 36 -4 0 6 -3 8 -6 5 -4 -3 -16 -2 -28 4
-20 10 -20 10 -2 -5z"/>
<path d="M3642 2570 c0 -14 2 -19 5 -12 2 6 2 18 0 25 -3 6 -5 1 -5 -13z"/>
<path d="M3672 2570 c0 -14 2 -19 5 -12 2 6 2 18 0 25 -3 6 -5 1 -5 -13z"/>
<path d="M740 2571 c0 -6 4 -13 10 -16 6 -3 7 1 4 9 -7 18 -14 21 -14 7z"/>
<path d="M900 2571 c0 -6 4 -13 10 -16 6 -3 7 1 4 9 -7 18 -14 21 -14 7z"/>
<path d="M1330 2567 c0 -8 6 -14 14 -14 8 0 12 6 9 14 -3 7 -9 13 -14 13 -5 0
-9 -6 -9 -13z"/>
<path d="M1480 2571 c0 -6 4 -13 10 -16 6 -3 7 1 4 9 -7 18 -14 21 -14 7z"/>
<path d="M1751 2564 c0 -11 3 -14 6 -6 3 7 2 16 -1 19 -3 4 -6 -2 -5 -13z"/>
<path d="M2981 2564 c0 -11 3 -14 6 -6 3 7 2 16 -1 19 -3 4 -6 -2 -5 -13z"/>
<path d="M3266 2563 c-6 -14 -5 -15 5 -6 7 7 10 15 7 18 -3 3 -9 -2 -12 -12z"/>
<path d="M3351 2564 c0 -11 3 -14 6 -6 3 7 2 16 -1 19 -3 4 -6 -2 -5 -13z"/>
<path d="M3616 2563 c-6 -14 -5 -15 5 -6 7 7 10 15 7 18 -3 3 -9 -2 -12 -12z"/>
<path d="M405 2560 c3 -5 8 -10 11 -10 2 0 4 5 4 10 0 6 -5 10 -11 10 -5 0 -7
-4 -4 -10z"/>
<path d="M1880 2560 c0 -5 5 -10 11 -10 5 0 7 5 4 10 -3 6 -8 10 -11 10 -2 0
-4 -4 -4 -10z"/>
<path d="M390 2490 c12 -8 13 -11 1 -19 -11 -7 -11 -9 0 -14 12 -4 11 -7 -1
-16 -10 -7 -11 -11 -2 -11 6 0 12 -6 12 -14 0 -8 -6 -17 -12 -19 -10 -4 -10
-6 0 -6 8 -1 12 -22 12 -70 0 -58 -3 -70 -17 -74 -17 -4 -17 -5 0 -6 19 -1 24
-21 5 -21 -9 0 -8 -4 2 -10 13 -9 13 -10 0 -10 -12 0 -13 -2 -1 -9 11 -7 11
-9 0 -14 -10 -4 -10 -6 -1 -6 8 -1 12 -22 12 -70 0 -46 -4 -71 -12 -74 -10 -4
-10 -6 0 -6 8 -1 12 -17 12 -46 0 -36 -3 -45 -17 -45 -17 -1 -17 -1 0 -14 14
-11 15 -15 5 -19 -10 -4 -10 -6 0 -6 6 -1 12 -8 12 -16 0 -8 -6 -15 -12 -15
-9 0 -8 -4 2 -10 13 -9 13 -10 0 -10 -13 0 -13 -1 0 -10 13 -9 13 -11 0 -20
-10 -6 -11 -10 -2 -10 6 0 12 -6 12 -14 0 -8 -6 -17 -12 -19 -10 -4 -10 -6 0
-6 16 -1 16 -48 0 -54 -10 -4 -10 -6 0 -6 7 -1 12 -16 12 -41 0 -31 -4 -40
-17 -41 -15 0 -15 -2 2 -9 13 -6 15 -9 5 -9 -13 -1 -13 -2 0 -11 13 -9 13 -11
0 -20 -10 -6 -11 -10 -2 -10 6 0 12 -9 12 -20 0 -11 -6 -20 -12 -20 -9 0 -8
-4 2 -10 13 -9 13 -11 0 -20 -10 -6 -11 -10 -2 -10 6 0 12 -6 12 -14 0 -8 -6
-17 -12 -19 -10 -4 -10 -6 0 -6 8 -1 12 -22 12 -70 0 -58 -3 -70 -17 -74 -17
-4 -17 -5 0 -6 19 -1 24 -21 5 -21 -9 0 -8 -4 2 -10 13 -9 13 -10 0 -10 -12 0
-13 -2 -1 -9 11 -7 11 -9 0 -14 -10 -4 -10 -6 -1 -6 17 -1 17 -137 -1 -144 -9
-4 -9 -6 1 -6 8 -1 12 -17 12 -46 0 -36 -3 -45 -17 -45 -17 -1 -17 -1 0 -14
14 -11 15 -15 5 -19 -10 -4 -10 -6 0 -6 6 -1 12 -8 12 -16 0 -8 -6 -15 -12
-15 -9 0 -8 -4 2 -10 13 -9 13 -10 0 -10 -13 0 -13 -1 0 -10 13 -9 13 -11 0
-20 -10 -6 -11 -10 -2 -10 16 0 16 -27 -1 -33 -9 -4 -9 -6 1 -6 16 -1 16 -48
-1 -54 -9 -4 -9 -6 1 -6 7 -1 12 -16 12 -41 0 -31 -4 -40 -17 -41 -15 0 -15
-2 2 -9 13 -6 15 -9 5 -9 -13 -1 -13 -2 0 -11 13 -9 13 -11 0 -20 -10 -6 -11
-10 -2 -10 6 0 12 -9 12 -20 0 -11 -6 -20 -12 -20 -9 0 -8 -4 2 -10 13 -9 13
-11 0 -20 -10 -6 -11 -10 -2 -10 6 0 12 -6 12 -14 0 -8 -6 -17 -12 -19 -10 -4
-10 -6 0 -6 8 -1 12 -22 12 -70 0 -58 -3 -70 -17 -74 -17 -4 -17 -5 0 -6 19
-1 24 -21 5 -21 -9 0 -8 -4 2 -10 11 -7 11 -10 2 -10 -8 0 -4 -9 10 -23 15
-16 25 -20 30 -13 5 7 8 6 8 -4 0 -13 1 -13 10 0 9 13 10 13 10 0 0 -13 1 -13
10 0 9 13 10 13 10 0 0 -13 2 -13 9 -1 7 11 10 10 14 -5 4 -16 5 -17 6 -1 1
14 10 17 50 17 30 0 51 -5 54 -12 4 -10 6 -10 6 0 1 16 58 16 64 0 4 -10 6
-10 6 0 1 6 10 12 21 12 11 0 20 -6 20 -12 0 -9 4 -8 10 2 8 12 11 13 19 1 7
-11 9 -11 14 0 5 12 7 12 15 0 8 -11 10 -11 15 0 4 12 7 11 16 -1 10 -13 11
-13 11 0 0 13 1 13 10 0 9 -13 10 -13 10 0 0 13 1 13 10 0 9 -13 10 -13 11 0
0 10 3 8 9 -5 7 -17 9 -17 9 -2 1 14 10 17 50 17 30 0 51 -5 54 -12 4 -10 6
-10 6 0 1 17 98 17 104 0 4 -10 6 -10 6 0 1 6 8 12 16 12 8 0 15 -6 15 -12 0
-9 4 -8 10 2 9 13 11 13 20 0 6 -10 10 -11 10 -2 0 20 68 15 73 -6 4 -16 5
-16 6 1 1 15 12 17 85 17 58 0 86 -4 89 -12 4 -10 6 -10 6 0 1 6 10 12 20 12
11 0 22 -6 24 -12 4 -10 6 -10 6 0 1 7 16 12 41 12 25 0 40 -5 40 -12 0 -9 4
-8 10 2 9 13 10 13 10 0 0 -13 1 -13 10 0 9 13 10 13 10 0 0 -13 2 -13 9 -1 7
11 10 10 14 -5 4 -16 5 -17 6 -1 1 14 10 17 50 17 30 0 51 -5 54 -13 4 -9 6
-9 6 1 1 16 58 16 64 0 4 -10 6 -10 6 0 1 7 15 12 36 12 21 0 35 -5 35 -12 0
-9 4 -8 10 2 9 13 11 13 20 0 6 -10 10 -11 10 -2 0 16 37 16 43 0 4 -9 6 -9 6
1 1 11 5 10 16 -5 13 -17 14 -17 15 -1 0 14 9 17 54 17 34 0 56 -5 59 -12 4
-10 6 -10 6 0 1 6 12 12 25 12 13 0 27 -6 29 -12 4 -10 6 -10 6 0 1 6 10 12
20 12 11 0 22 -6 24 -12 4 -10 6 -10 6 0 1 6 8 12 16 12 8 0 15 -6 15 -12 0
-9 4 -8 10 2 9 13 11 13 20 0 9 -13 10 -13 10 0 0 13 1 13 10 0 9 -13 10 -13
10 0 0 13 1 13 10 0 9 -13 10 -13 10 0 0 13 1 13 10 0 9 -13 10 -13 11 0 0 10
3 8 9 -5 7 -17 9 -17 9 -2 1 14 10 17 50 17 30 0 51 -5 54 -13 4 -9 6 -9 6 1
1 16 58 16 64 0 4 -10 6 -10 6 0 1 16 38 16 44 0 4 -10 6 -10 6 0 1 6 8 12 16
12 13 0 15 131 15 1115 l0 1115 -1137 0 c-751 0 -1133 -4 -1123 -10z m1131
-22 l2 -23 4 23 4 22 555 0 554 0 0 -1105 0 -1105 -1115 0 -1115 0 0 1105 0
1105 555 0 555 0 1 -22z"/>
<path d="M445 2040 c0 -228 1 -322 2 -208 2 115 2 301 0 415 -1 115 -2 21 -2
-207z"/>
<path d="M530 2415 c-19 -23 -8 -50 22 -53 19 -2 28 2 33 18 12 39 -29 66 -55
35z"/>
<path d="M1141 2388 c2 -30 2 -30 6 -6 2 15 12 29 21 31 12 3 10 5 -5 6 -20 1
-23 -4 -22 -31z"/>
<path d="M1202 2390 c0 -19 2 -27 5 -17 2 9 2 25 0 35 -3 9 -5 1 -5 -18z"/>
<path d="M2526 2388 l16 -32 14 25 c19 35 17 39 -16 39 l-31 0 17 -32z m24 12
c0 -5 -2 -10 -4 -10 -3 0 -8 5 -11 10 -3 6 -1 10 4 10 6 0 11 -4 11 -10z"/>
<path d="M1092 2385 c0 -16 2 -22 5 -12 2 9 2 23 0 30 -3 6 -5 -1 -5 -18z"/>
<path d="M1522 2390 c0 -14 2 -19 5 -12 2 6 2 18 0 25 -3 6 -5 1 -5 -13z"/>
<path d="M724 2386 c24 -19 36 -20 36 -4 0 6 -3 8 -6 5 -4 -3 -16 -2 -28 4
-20 10 -20 10 -2 -5z"/>
<path d="M862 2380 c0 -14 2 -19 5 -12 2 6 2 18 0 25 -3 6 -5 1 -5 -13z"/>
<path d="M982 2380 c0 -14 2 -19 5 -12 2 6 2 18 0 25 -3 6 -5 1 -5 -13z"/>
<path d="M1220 2393 c0 -6 8 -17 18 -24 16 -13 16 -13 2 6 -8 11 -16 22 -17
24 -2 2 -3 0 -3 -6z"/>
<path d="M1270 2396 c0 -3 9 -10 20 -16 11 -6 20 -8 20 -6 0 3 -9 10 -20 16
-11 6 -20 8 -20 6z"/>
<path d="M780 2386 c0 -2 8 -10 18 -17 15 -13 16 -12 3 4 -13 16 -21 21 -21
13z"/>
<path d="M822 2370 c0 -14 2 -19 5 -12 2 6 2 18 0 25 -3 6 -5 1 -5 -13z"/>
<path d="M841 2374 c0 -11 3 -14 6 -6 3 7 2 16 -1 19 -3 4 -6 -2 -5 -13z"/>
<path d="M931 2374 c0 -11 3 -14 6 -6 3 7 2 16 -1 19 -3 4 -6 -2 -5 -13z"/>
<path d="M951 2374 c0 -11 3 -14 6 -6 3 7 2 16 -1 19 -3 4 -6 -2 -5 -13z"/>
<path d="M1021 2374 c0 -11 3 -14 6 -6 3 7 2 16 -1 19 -3 4 -6 -2 -5 -13z"/>
<path d="M1061 2374 c0 -11 3 -14 6 -6 3 7 2 16 -1 19 -3 4 -6 -2 -5 -13z"/>
<path d="M536 2305 c-15 -23 -15 -27 0 -50 l17 -26 18 27 c16 25 16 29 2 51
-8 12 -17 23 -18 23 -1 0 -10 -11 -19 -25z"/>
<path d="M1522 2310 c0 -14 2 -19 5 -12 2 6 2 18 0 25 -3 6 -5 1 -5 -13z"/>
<path d="M712 2280 c0 -19 2 -27 5 -17 2 9 2 25 0 35 -3 9 -5 1 -5 -18z"/>
<path d="M1041 2278 c2 -30 2 -30 6 -6 2 15 12 29 21 31 12 3 10 5 -5 6 -20 1
-23 -4 -22 -31z"/>
<path d="M1102 2280 c0 -19 2 -27 5 -17 2 9 2 25 0 35 -3 9 -5 1 -5 -18z"/>
<path d="M892 2275 c0 -16 2 -22 5 -12 2 9 2 23 0 30 -3 6 -5 -1 -5 -18z"/>
<path d="M920 2276 c0 -22 3 -27 11 -19 8 8 8 16 0 30 -9 16 -10 14 -11 -11z"/>
<path d="M982 2275 c0 -16 2 -22 5 -12 2 9 2 23 0 30 -3 6 -5 -1 -5 -18z"/>
<path d="M1120 2283 c0 -6 8 -17 18 -24 16 -13 16 -13 2 6 -8 11 -16 22 -17
24 -2 2 -3 0 -3 -6z"/>
<path d="M1170 2286 c0 -3 9 -10 20 -16 11 -6 20 -8 20 -6 0 3 -9 10 -20 16
-11 6 -20 8 -20 6z"/>
<path d="M791 2264 c0 -11 3 -14 6 -6 3 7 2 16 -1 19 -3 4 -6 -2 -5 -13z"/>
<path d="M811 2264 c0 -11 3 -14 6 -6 3 7 2 16 -1 19 -3 4 -6 -2 -5 -13z"/>
<path d="M871 2264 c0 -11 3 -14 6 -6 3 7 2 16 -1 19 -3 4 -6 -2 -5 -13z"/>
<path d="M2526 2202 c-21 -41 -21 -43 12 -36 36 9 36 8 19 40 l-15 28 -16 -32z
m24 -12 c0 -5 -5 -10 -11 -10 -5 0 -7 5 -4 10 3 6 8 10 11 10 2 0 4 -4 4 -10z"/>
<path d="M535 2170 c-20 -39 -20 -40 20 -40 19 0 35 2 35 5 0 9 -30 65 -35 65
-2 0 -11 -13 -20 -30z m24 -29 c-15 -5 -22 6 -14 19 6 9 10 9 16 -1 5 -8 4
-15 -2 -18z"/>
<path d="M712 2170 c0 -19 2 -27 5 -17 2 9 2 25 0 35 -3 9 -5 1 -5 -18z"/>
<path d="M1062 2170 c0 -19 2 -27 5 -17 2 9 2 25 0 35 -3 9 -5 1 -5 -18z"/>
<path d="M748 2167 c-3 -19 -2 -25 4 -19 6 6 8 18 6 28 -3 14 -5 12 -10 -9z"/>
<path d="M1122 2165 c0 -16 2 -22 5 -12 2 9 2 23 0 30 -3 6 -5 -1 -5 -18z"/>
<path d="M1142 2165 c0 -16 2 -22 5 -12 2 9 2 23 0 30 -3 6 -5 -1 -5 -18z"/>
<path d="M1012 2160 c0 -14 2 -19 5 -12 2 6 2 18 0 25 -3 6 -5 1 -5 -13z"/>
<path d="M1253 2163 c0 -11 7 -20 14 -20 10 0 10 4 1 16 -7 9 -13 18 -15 20
-1 2 -1 -5 0 -16z"/>
<path d="M801 2154 c0 -11 3 -14 6 -6 3 7 2 16 -1 19 -3 4 -6 -2 -5 -13z"/>
<path d="M822 2150 c0 -14 2 -19 5 -12 2 6 2 18 0 25 -3 6 -5 1 -5 -13z"/>
<path d="M871 2154 c0 -11 3 -14 6 -6 3 7 2 16 -1 19 -3 4 -6 -2 -5 -13z"/>
<path d="M911 2154 c0 -11 3 -14 6 -6 3 7 2 16 -1 19 -3 4 -6 -2 -5 -13z"/>
<path d="M951 2154 c0 -11 3 -14 6 -6 3 7 2 16 -1 19 -3 4 -6 -2 -5 -13z"/>
<path d="M1091 2154 c0 -11 3 -14 6 -6 3 7 2 16 -1 19 -3 4 -6 -2 -5 -13z"/>
<path d="M1171 2154 c0 -11 3 -14 6 -6 3 7 2 16 -1 19 -3 4 -6 -2 -5 -13z"/>
<path d="M1231 2154 c0 -11 3 -14 6 -6 3 7 2 16 -1 19 -3 4 -6 -2 -5 -13z"/>
<path d="M2470 2105 c-13 -14 -29 -25 -36 -25 -6 0 -17 -14 -24 -31 -8 -17
-39 -58 -69 -90 -31 -33 -69 -75 -84 -93 -15 -19 -38 -36 -50 -38 -12 -2 -27
-14 -33 -27 -16 -31 -64 -70 -87 -71 -10 0 -22 -11 -27 -24 -11 -29 -56 -66
-82 -66 -10 0 -21 -8 -25 -17 -11 -32 -66 -83 -89 -83 -15 0 -25 -8 -30 -22
-8 -25 -48 -60 -78 -68 -12 -3 -26 -15 -31 -27 -14 -28 -69 -73 -89 -73 -9 0
-21 -11 -26 -24 -11 -30 -59 -68 -77 -62 -8 3 -23 -10 -37 -32 -29 -46 -47
-61 -83 -71 -15 -4 -30 -16 -31 -26 -5 -24 -51 -62 -84 -69 -16 -3 -28 -12
-28 -21 0 -22 -50 -64 -77 -65 -14 0 -28 -10 -37 -27 -18 -36 -56 -70 -81 -75
-11 -2 -24 -13 -30 -24 -13 -26 -70 -76 -82 -72 -5 2 -25 -14 -45 -34 -21 -20
-49 -38 -65 -40 -18 -2 -32 -12 -40 -29 -14 -29 -59 -63 -72 -55 -5 3 -15 -1
-22 -10 -20 -24 -80 -46 -94 -34 -14 12 -32 -21 -33 -60 -1 -30 -61 -85 -76
-70 -14 14 -36 -8 -36 -35 0 -33 26 -38 52 -10 25 26 55 34 77 21 9 -6 17 -3
22 7 5 8 25 21 45 27 30 10 38 10 45 -1 8 -12 12 -11 23 4 21 27 72 39 87 20
12 -13 14 -13 24 0 17 24 81 32 92 13 8 -15 11 -15 28 4 20 22 80 28 88 8 3
-9 10 -6 21 9 20 26 71 39 91 23 12 -10 16 -9 21 4 9 22 80 22 92 -1 9 -14 11
-14 21 5 16 30 81 57 93 40 6 -10 11 -9 22 5 8 10 28 22 45 27 26 7 34 6 43
-10 11 -18 13 -17 29 9 18 30 66 46 86 30 7 -7 16 -3 26 10 18 26 79 50 85 33
6 -18 20 -14 27 8 9 28 75 72 90 60 8 -7 16 -2 26 16 17 32 63 66 85 62 9 -2
21 6 28 16 21 37 71 75 89 70 9 -3 17 -1 17 4 0 4 16 28 36 51 25 28 43 41 54
38 12 -3 23 4 31 22 17 32 68 76 88 76 9 0 22 12 29 27 14 31 70 74 89 70 7
-2 13 2 13 8 0 20 73 91 90 87 25 -6 43 28 30 54 -9 16 -14 18 -26 8 -8 -6
-14 -17 -14 -24 0 -16 -71 -71 -87 -67 -7 1 -19 -11 -27 -27 -19 -36 -65 -73
-83 -67 -8 4 -19 -5 -26 -22 -14 -32 -64 -77 -86 -77 -8 0 -22 -12 -30 -27
-20 -34 -72 -76 -88 -71 -6 2 -17 -6 -24 -19 -18 -35 -72 -78 -85 -67 -7 6
-16 0 -25 -17 -17 -33 -65 -67 -84 -60 -8 3 -22 -6 -34 -22 -26 -36 -78 -67
-84 -50 -3 9 -12 4 -25 -13 -25 -31 -68 -45 -87 -29 -9 8 -14 6 -19 -5 -3 -8
-22 -23 -42 -33 -34 -16 -38 -16 -47 0 -10 14 -12 14 -29 -7 -20 -26 -67 -38
-86 -22 -11 8 -18 6 -30 -10 -23 -30 -73 -48 -84 -31 -7 10 -11 9 -22 -4 -18
-24 -81 -24 -91 -1 -6 16 -8 16 -23 -3 -9 -12 -32 -26 -49 -32 -27 -9 -34 -8
-41 5 -8 13 -11 13 -23 -4 -17 -25 -75 -35 -91 -16 -9 11 -12 11 -22 -1 -18
-23 -71 -30 -86 -11 -13 15 -15 15 -29 -3 -22 -27 -80 -37 -88 -16 -5 14 -8
14 -22 -5 -9 -11 -30 -25 -47 -30 -28 -8 -31 -7 -27 10 7 26 60 69 84 69 11 0
23 10 28 24 11 27 29 36 77 36 29 0 35 3 32 19 -4 24 49 68 86 73 21 2 30 9
33 26 4 31 52 71 86 72 20 0 27 5 27 20 0 24 54 60 89 60 16 0 22 4 17 15 -7
19 67 75 100 75 17 0 21 4 17 19 -6 24 53 71 91 71 22 0 26 4 21 19 -4 13 5
28 30 50 37 32 55 39 55 20 0 -6 7 -3 16 6 9 9 14 19 10 22 -13 13 57 73 86
73 21 0 28 5 28 20 0 29 59 79 93 80 24 0 27 3 22 20 -5 15 4 26 36 50 23 16
51 30 62 30 12 0 17 5 14 14 -8 21 67 86 98 86 18 0 23 4 18 16 -9 24 55 84
89 84 20 0 26 4 22 15 -8 20 67 95 95 95 14 0 21 6 21 18 0 23 49 71 78 77 30
5 42 14 42 29 0 17 51 63 74 68 11 1 26 15 35 30 19 32 58 64 86 69 25 5 32
44 9 53 -18 7 -44 -10 -44 -28 0 -13 -41 -56 -53 -56 -15 0 -6 35 19 67 30 39
27 43 -6 8z m-70 -117 c0 -7 -13 -22 -28 -33 l-27 -20 25 32 c29 36 30 38 30
21z m-560 -512 c0 -2 -8 -10 -17 -17 -16 -13 -17 -12 -4 4 13 16 21 21 21 13z
m-120 -99 c0 -2 -10 -12 -22 -23 l-23 -19 19 23 c18 21 26 27 26 19z m-130
-111 c0 -2 -8 -10 -17 -17 -16 -13 -17 -12 -4 4 13 16 21 21 21 13z m-910
-706 c-27 -21 -40 -25 -40 -11 0 5 12 14 28 19 39 15 40 14 12 -8z"/>
<path d="M527 2063 c3 -10 12 -26 18 -35 12 -18 13 -17 43 45 2 4 -13 7 -32 7
-29 0 -34 -3 -29 -17z m37 -8 c-4 -8 -7 -15 -9 -15 -2 0 -5 7 -9 15 -3 9 0 15
9 15 9 0 12 -6 9 -15z"/>
<path d="M712 2050 c0 -19 2 -27 5 -17 2 9 2 25 0 35 -3 9 -5 1 -5 -18z"/>
<path d="M1172 2050 c0 -19 2 -27 5 -17 2 9 2 25 0 35 -3 9 -5 1 -5 -18z"/>
<path d="M1222 2045 c0 -16 2 -22 5 -12 2 9 2 23 0 30 -3 6 -5 -1 -5 -18z"/>
<path d="M1242 2045 c0 -16 2 -22 5 -12 2 9 2 23 0 30 -3 6 -5 -1 -5 -18z"/>
<path d="M730 2053 c0 -6 8 -17 18 -24 16 -13 16 -13 2 6 -8 11 -16 22 -17 24
-2 2 -3 0 -3 -6z"/>
<path d="M780 2046 c0 -8 4 -17 9 -20 5 -4 7 3 4 14 -6 23 -13 26 -13 6z"/>
<path d="M1112 2040 c0 -14 2 -19 5 -12 2 6 2 18 0 25 -3 6 -5 1 -5 -13z"/>
<path d="M1353 2043 c0 -11 7 -20 14 -20 10 0 10 4 1 16 -7 9 -13 18 -15 20
-1 2 -1 -5 0 -16z"/>
<path d="M840 2034 c0 -8 5 -12 10 -9 6 3 10 10 10 16 0 5 -4 9 -10 9 -5 0
-10 -7 -10 -16z"/>
<path d="M901 2034 c0 -11 3 -14 6 -6 3 7 2 16 -1 19 -3 4 -6 -2 -5 -13z"/>
<path d="M941 2034 c0 -11 3 -14 6 -6 3 7 2 16 -1 19 -3 4 -6 -2 -5 -13z"/>
<path d="M961 2034 c0 -11 3 -14 6 -6 3 7 2 16 -1 19 -3 4 -6 -2 -5 -13z"/>
<path d="M1011 2034 c0 -11 3 -14 6 -6 3 7 2 16 -1 19 -3 4 -6 -2 -5 -13z"/>
<path d="M1051 2034 c0 -11 3 -14 6 -6 3 7 2 16 -1 19 -3 4 -6 -2 -5 -13z"/>
<path d="M1201 2034 c0 -11 3 -14 6 -6 3 7 2 16 -1 19 -3 4 -6 -2 -5 -13z"/>
<path d="M1271 2034 c0 -11 3 -14 6 -6 3 7 2 16 -1 19 -3 4 -6 -2 -5 -13z"/>
<path d="M1331 2034 c0 -11 3 -14 6 -6 3 7 2 16 -1 19 -3 4 -6 -2 -5 -13z"/>
<path d="M1522 2020 c0 -14 2 -19 5 -12 2 6 2 18 0 25 -3 6 -5 1 -5 -13z"/>
<path d="M851 1942 c-1 -16 -5 -21 -13 -16 -8 5 -7 0 2 -11 13 -16 15 -16 18
-2 2 10 1 25 -1 35 -3 12 -5 11 -6 -6z"/>
<path d="M1522 1940 c0 -14 2 -19 5 -12 2 6 2 18 0 25 -3 6 -5 1 -5 -13z"/>
<path d="M730 1926 c0 -2 8 -10 18 -17 15 -13 16 -12 3 4 -13 16 -21 21 -21
13z"/>
<path d="M1955 1898 c12 -39 23 -41 39 -9 l17 31 -31 0 c-28 0 -31 -3 -25 -22z
m35 8 c0 -3 -4 -8 -10 -11 -5 -3 -10 -1 -10 4 0 6 5 11 10 11 6 0 10 -2 10 -4z"/>
<path d="M1522 1860 c0 -14 2 -19 5 -12 2 6 2 18 0 25 -3 6 -5 1 -5 -13z"/>
<path d="M1001 1832 c-1 -16 -5 -21 -13 -16 -8 5 -7 0 2 -11 13 -16 15 -16 18
-2 2 10 1 25 -1 35 -3 12 -5 11 -6 -6z"/>
<path d="M810 1816 c0 -22 3 -27 11 -19 8 8 8 16 0 30 -9 16 -10 14 -11 -11z"/>
<path d="M922 1810 c0 -14 2 -19 5 -12 2 6 2 18 0 25 -3 6 -5 1 -5 -13z"/>
<path d="M1863 1822 c-25 -3 -31 -7 -26 -20 15 -41 25 -43 45 -11 10 17 18 32
16 33 -2 1 -17 0 -35 -2z"/>
<path d="M730 1816 c0 -2 8 -10 18 -17 15 -13 16 -12 3 4 -13 16 -21 21 -21
13z"/>
<path d="M851 1804 c0 -11 3 -14 6 -6 3 7 2 16 -1 19 -3 4 -6 -2 -5 -13z"/>
<path d="M875 1790 c-3 -6 1 -7 9 -4 18 7 21 14 7 14 -6 0 -13 -4 -16 -10z"/>
<path d="M1522 1780 c0 -14 2 -19 5 -12 2 6 2 18 0 25 -3 6 -5 1 -5 -13z"/>
<path d="M1000 1706 c0 -14 4 -27 8 -30 5 -3 6 8 4 25 -5 35 -12 38 -12 5z"/>
<path d="M1072 1700 c0 -19 2 -27 5 -17 2 9 2 25 0 35 -3 9 -5 1 -5 -18z"/>
<path d="M1720 1726 c0 -15 21 -56 28 -56 8 0 32 42 32 55 0 3 -13 5 -30 5
-16 0 -30 -2 -30 -4z m40 -16 c0 -5 -4 -10 -10 -10 -5 0 -10 5 -10 10 0 6 5
10 10 10 6 0 10 -4 10 -10z"/>
<path d="M782 1695 c0 -16 2 -22 5 -12 2 9 2 23 0 30 -3 6 -5 -1 -5 -18z"/>
<path d="M937 1705 c-4 -8 -2 -17 3 -20 6 -4 10 3 10 14 0 25 -6 27 -13 6z"/>
<path d="M1108 1697 c-3 -19 -2 -25 4 -19 6 6 8 18 6 28 -3 14 -5 12 -10 -9z"/>
<path d="M538 1703 c6 -2 18 -2 25 0 6 3 1 5 -13 5 -14 0 -19 -2 -12 -5z"/>
<path d="M811 1694 c0 -11 3 -14 6 -6 3 7 2 16 -1 19 -3 4 -6 -2 -5 -13z"/>
<path d="M840 1695 c0 -8 5 -15 10 -15 6 0 10 7 10 15 0 8 -4 15 -10 15 -5 0
-10 -7 -10 -15z"/>
<path d="M881 1694 c0 -11 3 -14 6 -6 3 7 2 16 -1 19 -3 4 -6 -2 -5 -13z"/>
<path d="M720 1691 c0 -6 4 -13 10 -16 6 -3 7 1 4 9 -7 18 -14 21 -14 7z"/>
<path d="M1170 1685 c0 -8 4 -15 10 -15 5 0 7 7 4 15 -4 8 -8 15 -10 15 -2 0
-4 -7 -4 -15z"/>
<path d="M1291 1684 c0 -11 3 -14 6 -6 3 7 2 16 -1 19 -3 4 -6 -2 -5 -13z"/>
<path d="M1321 1684 c0 -11 3 -14 6 -6 3 7 2 16 -1 19 -3 4 -6 -2 -5 -13z"/>
<path d="M1610 1626 c0 -3 5 -17 11 -33 l10 -28 19 25 c26 34 25 40 -10 40
-16 0 -30 -2 -30 -4z m40 -10 c0 -3 -4 -8 -10 -11 -5 -3 -10 -1 -10 4 0 6 5
11 10 11 6 0 10 -2 10 -4z"/>
<path d="M1497 1523 c3 -10 11 -25 17 -34 9 -14 13 -12 28 17 l18 34 -35 0
c-28 0 -33 -3 -28 -17z m33 -3 c0 -5 -2 -10 -4 -10 -3 0 -8 5 -11 10 -3 6 -1
10 4 10 6 0 11 -4 11 -10z"/>
<path d="M1409 1441 c-23 -5 -25 -9 -18 -28 11 -31 21 -29 42 7 10 17 15 29
10 29 -4 -1 -20 -4 -34 -8z"/>
<path d="M1522 1410 c0 -14 2 -19 5 -12 2 6 2 18 0 25 -3 6 -5 1 -5 -13z"/>
<path d="M1270 1346 c0 -15 21 -56 28 -56 8 0 32 42 32 55 0 3 -13 5 -30 5
-16 0 -30 -2 -30 -4z"/>
<path d="M1522 1330 c0 -14 2 -19 5 -12 2 6 2 18 0 25 -3 6 -5 1 -5 -13z"/>
<path d="M1160 1231 c0 -10 6 -23 13 -29 9 -8 17 -3 29 19 l17 29 -29 0 c-23
0 -30 -5 -30 -19z"/>
<path d="M1069 1161 c-23 -5 -25 -9 -18 -28 11 -30 22 -29 39 2 16 30 13 33
-21 26z"/>
<path d="M957 1062 c-23 -3 -27 -7 -21 -25 11 -38 22 -40 39 -7 19 37 19 37
-18 32z m13 -16 c0 -3 -4 -8 -10 -11 -5 -3 -10 -1 -10 4 0 6 5 11 10 11 6 0
10 -2 10 -4z"/>
<path d="M1522 1040 c0 -14 2 -19 5 -12 2 6 2 18 0 25 -3 6 -5 1 -5 -13z"/>
<path d="M1522 960 c0 -14 2 -19 5 -12 2 6 2 18 0 25 -3 6 -5 1 -5 -13z"/>
<path d="M820 951 c0 -10 6 -24 14 -30 10 -9 17 -6 30 13 22 34 21 36 -14 36
-23 0 -30 -5 -30 -19z m30 -1 c0 -5 -2 -10 -4 -10 -3 0 -8 5 -11 10 -3 6 -1
10 4 10 6 0 11 -4 11 -10z"/>
<path d="M707 880 c10 -37 28 -41 47 -10 l17 30 -34 0 c-30 0 -34 -3 -30 -20z
m33 0 c0 -5 -2 -10 -4 -10 -3 0 -8 5 -11 10 -3 6 -1 10 4 10 6 0 11 -4 11 -10z"/>
<path d="M1522 880 c0 -14 2 -19 5 -12 2 6 2 18 0 25 -3 6 -5 1 -5 -13z"/>
<path d="M595 818 c11 -37 24 -44 40 -22 23 30 18 44 -16 44 -27 0 -30 -3 -24
-22z"/>
<path d="M1522 800 c0 -14 2 -19 5 -12 2 6 2 18 0 25 -3 6 -5 1 -5 -13z"/>
<path d="M480 777 c0 -7 6 -21 13 -31 13 -17 14 -17 30 8 23 34 22 36 -13 36
-18 0 -30 -5 -30 -13z m34 -12 c-4 -8 -7 -15 -9 -15 -2 0 -5 7 -9 15 -3 9 0
15 9 15 9 0 12 -6 9 -15z"/>
<path d="M492 524 c-16 -34 -16 -34 13 -34 27 0 32 16 11 42 -12 16 -14 16
-24 -8z"/>
<path d="M1522 510 c0 -14 2 -19 5 -12 2 6 2 18 0 25 -3 6 -5 1 -5 -13z"/>
<path d="M1522 430 c0 -14 2 -19 5 -12 2 6 2 18 0 25 -3 6 -5 1 -5 -13z"/>
<path d="M1522 350 c0 -14 2 -19 5 -12 2 6 2 18 0 25 -3 6 -5 1 -5 -13z"/>
<path d="M2788 2378 c2 -92 0 -123 -10 -129 -7 -5 -8 -9 -2 -9 7 0 11 -54 12
-155 1 -104 -1 -155 -9 -155 -6 0 -7 -5 -2 -12 14 -22 14 -291 0 -300 -7 -4
-7 -8 -2 -8 16 0 19 -302 3 -312 -7 -4 -8 -8 -2 -8 7 0 11 -54 12 -155 1 -104
-1 -155 -9 -155 -6 0 -7 -5 -2 -12 14 -22 14 -291 0 -300 -7 -4 -7 -8 -2 -8
16 0 19 -310 3 -310 -9 0 -10 -2 -2 -8 7 -4 12 -16 12 -27 -1 -43 4 -80 9 -63
4 16 19 18 138 18 119 0 134 -2 138 -18 4 -16 5 -16 6 1 1 15 14 17 130 17
115 0 130 -2 134 -17 4 -17 5 -17 6 0 1 15 15 17 135 17 120 0 135 -2 139 -18
4 -16 5 -16 6 1 1 15 15 17 135 17 120 0 135 -2 139 -18 4 -16 5 -16 6 1 1 15
15 17 135 17 120 0 135 -2 139 -17 3 -10 5 492 6 1115 l1 1132 -703 0 -702 0
3 -122z m1390 -995 l2 -1103 -690 0 -690 0 0 537 c0 432 2 533 13 520 10 -15
12 -13 12 18 0 31 -2 33 -12 18 -11 -13 -13 94 -13 550 l0 567 688 -2 687 -3
3 -1102z"/>
<path d="M3530 1950 c0 -5 -16 -10 -35 -10 -19 0 -35 -2 -35 -5 0 -10 43 -95
50 -100 4 -3 13 9 20 25 15 35 23 37 41 9 13 -20 15 -18 41 35 l28 56 -55 0
c-30 0 -55 -4 -55 -10z m74 -32 c-9 -18 -18 -35 -20 -36 -3 -4 -34 53 -34 63
0 3 16 5 35 5 l36 0 -17 -32z m-64 0 c-1 -7 -7 -24 -14 -37 l-14 -25 -16 32
c-21 41 -21 42 14 42 18 0 30 -5 30 -12z"/>
<path d="M3892 1913 c7 -16 20 -41 29 -57 l17 -29 26 51 c14 28 26 54 26 57 0
3 -25 5 -55 5 l-55 0 12 -27z m62 -15 c-9 -18 -17 -34 -18 -35 -2 -2 -10 13
-19 32 l-17 35 35 0 36 0 -17 -32z"/>
<path d="M3675 1909 c4 -12 16 -37 27 -56 l21 -34 16 28 c9 15 22 40 29 56
l12 27 -56 0 c-52 0 -55 -1 -49 -21z m69 -21 c-9 -18 -18 -35 -20 -36 -3 -4
-34 53 -34 63 0 3 16 5 35 5 l36 0 -17 -32z"/>
<path d="M2820 1915 c0 -3 12 -29 26 -57 l26 -51 17 29 c9 16 22 41 29 57 l12
27 -55 0 c-30 0 -55 -2 -55 -5z m74 -37 c-9 -18 -18 -35 -20 -36 -3 -4 -34 53
-34 63 0 3 16 5 35 5 l36 0 -17 -32z"/>
<path d="M3703 1729 c-12 -4 -25 -20 -29 -34 -7 -28 -29 -32 -53 -11 -9 7 -40
16 -69 19 -48 6 -56 4 -78 -18 -29 -29 -29 -35 -5 -66 17 -22 17 -28 5 -49
-20 -38 -18 -40 36 -40 28 0 50 5 50 10 0 6 16 10 36 10 33 0 36 2 30 24 -8
34 12 86 34 86 10 0 20 -7 24 -15 8 -22 60 -19 81 5 36 40 -10 99 -62 79z
m-105 -134 c16 -35 16 -35 -18 -35 -16 0 -30 2 -30 5 0 11 24 55 30 55 4 0 12
-11 18 -25z m-74 -10 c8 -23 -4 -45 -25 -45 -22 0 -23 1 -7 35 13 28 23 32 32
10z"/>
<path d="M2836 1684 c-21 -20 -20 -53 1 -76 15 -17 15 -21 0 -54 -9 -19 -17
-37 -17 -39 0 -3 23 -5 50 -5 55 0 59 7 35 53 -13 25 -12 30 5 47 24 24 25 39
4 68 -18 26 -56 29 -78 6z m64 -146 c0 -5 -14 -8 -30 -8 l-31 0 17 32 16 32
14 -25 c7 -13 13 -27 14 -31z"/>
<path d="M3895 1639 c-16 -16 -17 -25 -8 -48 6 -18 7 -35 1 -45 -8 -14 -2 -16
44 -16 l53 0 2 47 c1 26 -3 55 -8 65 -13 25 -61 23 -84 -3z m60 -59 c20 -39
20 -40 -20 -40 l-35 0 17 35 c9 19 18 35 20 35 1 0 9 -13 18 -30z"/>
<path d="M3708 1587 c-43 -85 -45 -77 16 -77 l56 0 -12 28 c-7 15 -20 39 -28
54 l-16 27 -16 -32z m36 -34 l17 -33 -36 0 -35 0 17 35 c9 19 17 34 19 32 1
-1 9 -17 18 -34z"/>
<path d="M2910 1355 c0 -19 4 -35 8 -35 4 0 6 16 4 35 -2 19 -6 35 -8 35 -2 0
-4 -16 -4 -35z"/>
<path d="M2992 1355 c13 -19 26 -35 30 -35 9 0 -35 69 -45 70 -4 0 3 -16 15
-35z"/>
<path d="M3092 1350 c0 -19 2 -27 5 -17 2 9 2 25 0 35 -3 9 -5 1 -5 -18z"/>
<path d="M3121 1354 c0 -11 3 -14 6 -6 3 7 2 16 -1 19 -3 4 -6 -2 -5 -13z"/>
<path d="M3157 1344 c-4 -24 -3 -24 14 -8 23 20 23 20 5 27 -9 4 -16 -3 -19
-19z"/>
<path d="M3221 1362 c-1 -7 -5 -11 -9 -8 -4 2 -8 -4 -8 -15 0 -16 2 -17 14 -5
8 8 12 20 9 28 -4 10 -6 10 -6 0z"/>
<path d="M3258 1347 c-3 -19 -2 -25 4 -19 6 6 8 18 6 28 -3 14 -5 12 -10 -9z"/>
<path d="M2861 1334 c0 -11 3 -14 6 -6 3 7 2 16 -1 19 -3 4 -6 -2 -5 -13z"/>
<path d="M2850 1258 c-25 -41 -25 -43 1 -85 l22 -35 19 31 c11 17 27 31 35 31
12 0 12 2 -2 16 -8 9 -22 29 -30 45 -9 16 -18 29 -20 29 -3 0 -14 -15 -25 -32z"/>
<path d="M3560 1195 c0 -19 4 -35 8 -35 4 0 6 16 4 35 -2 19 -6 35 -8 35 -2 0
-4 -16 -4 -35z"/>
<path d="M3620 1195 c0 -19 4 -35 8 -35 4 0 6 16 4 35 -2 19 -6 35 -8 35 -2 0
-4 -16 -4 -35z"/>
<path d="M3670 1195 c0 -19 4 -35 8 -35 4 0 6 16 4 35 -2 19 -6 35 -8 35 -2 0
-4 -16 -4 -35z"/>
<path d="M3740 1228 c0 -16 23 -68 31 -68 5 0 3 12 -3 28 -12 27 -28 51 -28
40z"/>
<path d="M3810 1203 c13 -18 25 -33 27 -33 8 0 -17 38 -33 51 -11 9 -9 2 6
-18z"/>
<path d="M3922 1195 c13 -19 26 -35 30 -35 9 0 -35 69 -45 70 -4 0 3 -16 15
-35z"/>
<path d="M2958 1193 c7 -3 16 -2 19 1 4 3 -2 6 -13 5 -11 0 -14 -3 -6 -6z"/>
<path d="M3982 1170 c0 -19 2 -27 5 -17 2 9 2 25 0 35 -3 9 -5 1 -5 -18z"/>
<path d="M4012 1180 c0 -14 2 -19 5 -12 2 6 2 18 0 25 -3 6 -5 1 -5 -13z"/>
<path d="M2998 1183 c6 -2 18 -2 25 0 6 3 1 5 -13 5 -14 0 -19 -2 -12 -5z"/>
<path d="M3048 1173 c7 -3 16 -2 19 1 4 3 -2 6 -13 5 -11 0 -14 -3 -6 -6z"/>
<path d="M3088 1163 c7 -3 16 -2 19 1 4 3 -2 6 -13 5 -11 0 -14 -3 -6 -6z"/>
<path d="M3128 1153 c6 -2 18 -2 25 0 6 3 1 5 -13 5 -14 0 -19 -2 -12 -5z"/>
<path d="M3178 1143 c7 -3 16 -2 19 1 4 3 -2 6 -13 5 -11 0 -14 -3 -6 -6z"/>
<path d="M3218 1133 c7 -3 16 -2 19 1 4 3 -2 6 -13 5 -11 0 -14 -3 -6 -6z"/>
<path d="M3487 1111 c-13 -22 -23 -28 -40 -25 -22 5 -22 5 0 -5 12 -5 24 -18
27 -28 4 -10 13 -27 22 -38 15 -20 15 -20 34 5 l18 24 13 -27 c15 -34 26 -34
41 -2 6 14 16 25 22 25 23 0 56 -13 56 -21 0 -4 10 -24 21 -44 l22 -36 16 25
17 25 71 -50 c40 -27 70 -55 68 -62 -3 -7 6 -29 18 -51 l24 -38 21 35 c27 42
27 44 1 86 l-21 35 -18 -24 -17 -23 -71 49 c-45 30 -70 54 -67 63 3 7 -5 29
-17 49 l-21 35 -23 -28 c-31 -39 -62 -29 -94 29 l-24 46 -21 -26 -21 -26 -12
26 c-15 33 -24 33 -45 -3z"/>
<path d="M3258 1123 c6 -2 18 -2 25 0 6 3 1 5 -13 5 -14 0 -19 -2 -12 -5z"/>
<path d="M3308 1113 c7 -3 16 -2 19 1 4 3 -2 6 -13 5 -11 0 -14 -3 -6 -6z"/>
<path d="M3348 1103 c7 -3 16 -2 19 1 4 3 -2 6 -13 5 -11 0 -14 -3 -6 -6z"/>
<path d="M3388 1093 c6 -2 18 -2 25 0 6 3 1 5 -13 5 -14 0 -19 -2 -12 -5z"/>
<path d="M2871 1041 c-7 -13 -7 -23 2 -35 10 -14 12 -11 12 19 0 40 -1 41 -14
16z"/>
<path d="M2970 1025 c0 -19 4 -35 8 -35 4 0 6 16 4 35 -2 19 -6 35 -8 35 -2 0
-4 -16 -4 -35z"/>
<path d="M3042 1025 c13 -19 26 -35 30 -35 9 0 -35 69 -45 70 -4 0 3 -16 15
-35z"/>
<path d="M3390 1025 c0 -19 4 -35 8 -35 4 0 6 16 4 35 -2 19 -6 35 -8 35 -2 0
-4 -16 -4 -35z"/>
<path d="M3142 1020 c0 -19 2 -27 5 -17 2 9 2 25 0 35 -3 9 -5 1 -5 -18z"/>
<path d="M3181 1024 c0 -11 3 -14 6 -6 3 7 2 16 -1 19 -3 4 -6 -2 -5 -13z"/>
<path d="M3218 1016 c-3 -16 -1 -23 7 -19 7 2 11 13 8 24 -7 25 -10 24 -15 -5z"/>
<path d="M3240 1032 c0 -11 37 -32 44 -25 3 4 6 13 5 22 0 12 -3 11 -9 -4 -5
-11 -9 -15 -9 -9 -1 13 -31 28 -31 16z"/>
<path d="M3318 1017 c-3 -19 -2 -25 4 -19 6 6 8 18 6 28 -3 14 -5 12 -10 -9z"/>
<path d="M3452 1010 c0 -14 2 -19 5 -12 2 6 2 18 0 25 -3 6 -5 1 -5 -13z"/>
<path d="M2921 1004 c0 -11 3 -14 6 -6 3 7 2 16 -1 19 -3 4 -6 -2 -5 -13z"/>
<path d="M3230 905 c0 -19 4 -35 8 -35 4 0 6 16 4 35 -2 19 -6 35 -8 35 -2 0
-4 -16 -4 -35z"/>
<path d="M3320 905 c0 -19 4 -35 8 -35 4 0 6 16 4 35 -2 19 -6 35 -8 35 -2 0
-4 -16 -4 -35z"/>
<path d="M3392 905 c13 -19 26 -35 30 -35 9 0 -35 69 -45 70 -4 0 3 -16 15
-35z"/>
<path d="M3740 905 c0 -19 4 -35 8 -35 4 0 6 16 4 35 -2 19 -6 35 -8 35 -2 0
-4 -16 -4 -35z"/>
<path d="M3267 918 c-2 -7 -1 -22 3 -33 6 -16 8 -13 7 13 0 35 -2 39 -10 20z"/>
<path d="M3503 914 c0 -7 4 -11 8 -8 4 2 10 -2 12 -8 4 -8 6 -7 6 3 1 9 -5 19
-12 22 -8 3 -14 -1 -14 -9z"/>
<path d="M3558 897 c-3 -19 -2 -25 4 -19 6 6 8 18 6 28 -3 14 -5 12 -10 -9z"/>
<path d="M3590 913 c0 -5 9 -14 20 -21 17 -10 21 -10 26 3 4 9 4 19 0 22 -3 4
-6 1 -6 -6 0 -9 -5 -9 -20 -1 -11 6 -20 7 -20 3z"/>
<path d="M3668 897 c-3 -19 -2 -25 4 -19 6 6 8 18 6 28 -3 14 -5 12 -10 -9z"/>
<path d="M3792 890 c0 -14 2 -19 5 -12 2 6 2 18 0 25 -3 6 -5 1 -5 -13z"/>
<path d="M3488 873 c7 -3 16 -2 19 1 4 3 -2 6 -13 5 -11 0 -14 -3 -6 -6z"/>
<path d="M3820 789 c0 -4 7 -22 15 -40 8 -19 14 -27 14 -19 0 14 -28 72 -29
59z"/>
<path d="M3903 755 c0 -22 2 -30 4 -17 2 12 2 30 0 40 -3 9 -5 -1 -4 -23z"/>
<path d="M3931 754 c0 -11 3 -14 6 -6 3 7 2 16 -1 19 -3 4 -6 -2 -5 -13z"/>
<path d="M3968 745 c-4 -20 -3 -23 8 -14 16 13 19 39 5 39 -5 0 -11 -11 -13
-25z"/>
<path d="M4018 747 c-3 -19 -2 -25 4 -19 6 6 8 18 6 28 -3 14 -5 12 -10 -9z"/>
<path d="M232 2245 c0 -16 2 -22 5 -12 2 9 2 23 0 30 -3 6 -5 -1 -5 -18z"/>
<path d="M261 2244 c0 -11 3 -14 6 -6 3 7 2 16 -1 19 -3 4 -6 -2 -5 -13z"/>
<path d="M291 2244 c0 -11 3 -14 6 -6 3 7 2 16 -1 19 -3 4 -6 -2 -5 -13z"/>
<path d="M232 1925 c0 -16 2 -22 5 -12 2 9 2 23 0 30 -3 6 -5 -1 -5 -18z"/>
<path d="M261 1924 c0 -11 3 -14 6 -6 3 7 2 16 -1 19 -3 4 -6 -2 -5 -13z"/>
<path d="M291 1924 c0 -11 3 -14 6 -6 3 7 2 16 -1 19 -3 4 -6 -2 -5 -13z"/>
<path d="M43 1623 c15 -2 37 -2 50 0 12 2 0 4 -28 4 -27 0 -38 -2 -22 -4z"/>
<path d="M232 1605 c0 -16 2 -22 5 -12 2 9 2 23 0 30 -3 6 -5 -1 -5 -18z"/>
<path d="M261 1604 c0 -11 3 -14 6 -6 3 7 2 16 -1 19 -3 4 -6 -2 -5 -13z"/>
<path d="M291 1604 c0 -11 3 -14 6 -6 3 7 2 16 -1 19 -3 4 -6 -2 -5 -13z"/>
<path d="M60 1590 c-6 -11 -8 -20 -6 -20 3 0 10 9 16 20 6 11 8 20 6 20 -3 0
-10 -9 -16 -20z"/>
<path d="M73 1473 c-17 -6 -17 -23 0 -23 8 0 14 7 14 15 0 8 -1 15 -1 14 -1 0
-7 -3 -13 -6z"/>
<path d="M58 1423 c6 -2 18 -2 25 0 6 3 1 5 -13 5 -14 0 -19 -2 -12 -5z"/>
<path d="M58 1393 c6 -2 18 -2 25 0 6 3 1 5 -13 5 -14 0 -19 -2 -12 -5z"/>
<path d="M58 1363 c6 -2 18 -2 25 0 6 3 1 5 -13 5 -14 0 -19 -2 -12 -5z"/>
<path d="M53 1323 c9 -2 23 -2 30 0 6 3 -1 5 -18 5 -16 0 -22 -2 -12 -5z"/>
<path d="M296 1315 c-3 -9 -6 -22 -5 -28 0 -7 5 -1 10 12 5 13 8 26 5 28 -2 2
-6 -3 -10 -12z"/>
<path d="M232 1295 c0 -16 2 -22 5 -12 2 9 2 23 0 30 -3 6 -5 -1 -5 -18z"/>
<path d="M58 1303 c6 -2 18 -2 25 0 6 3 1 5 -13 5 -14 0 -19 -2 -12 -5z"/>
<path d="M261 1294 c0 -11 3 -14 6 -6 3 7 2 16 -1 19 -3 4 -6 -2 -5 -13z"/>
<path d="M58 1273 c6 -2 18 -2 25 0 6 3 1 5 -13 5 -14 0 -19 -2 -12 -5z"/>
<path d="M58 1243 c6 -2 18 -2 25 0 6 3 1 5 -13 5 -14 0 -19 -2 -12 -5z"/>
<path d="M58 1213 c6 -2 18 -2 25 0 6 3 1 5 -13 5 -14 0 -19 -2 -12 -5z"/>
<path d="M41 1180 c10 -7 49 -2 49 5 0 2 -14 3 -31 3 -17 -1 -25 -4 -18 -8z"/>
<path d="M50 1150 l-35 -7 38 -2 c20 0 37 4 37 9 0 6 -1 9 -2 9 -2 -1 -19 -5
-38 -9z"/>
<path d="M172 975 c0 -16 2 -22 5 -12 2 9 2 23 0 30 -3 6 -5 -1 -5 -18z"/>
<path d="M201 974 c0 -11 3 -14 6 -6 3 7 2 16 -1 19 -3 4 -6 -2 -5 -13z"/>
<path d="M231 974 c0 -11 3 -14 6 -6 3 7 2 16 -1 19 -3 4 -6 -2 -5 -13z"/>
<path d="M172 655 c0 -16 2 -22 5 -12 2 9 2 23 0 30 -3 6 -5 -1 -5 -18z"/>
<path d="M201 654 c0 -11 3 -14 6 -6 3 7 2 16 -1 19 -3 4 -6 -2 -5 -13z"/>
<path d="M231 654 c0 -11 3 -14 6 -6 3 7 2 16 -1 19 -3 4 -6 -2 -5 -13z"/>
<path d="M172 345 c0 -16 2 -22 5 -12 2 9 2 23 0 30 -3 6 -5 -1 -5 -18z"/>
<path d="M201 344 c0 -11 3 -14 6 -6 3 7 2 16 -1 19 -3 4 -6 -2 -5 -13z"/>
<path d="M231 344 c0 -11 3 -14 6 -6 3 7 2 16 -1 19 -3 4 -6 -2 -5 -13z"/>
<path d="M1681 204 c0 -11 3 -14 6 -6 3 7 2 16 -1 19 -3 4 -6 -2 -5 -13z"/>
<path d="M462 175 c0 -16 2 -22 5 -12 2 9 2 23 0 30 -3 6 -5 -1 -5 -18z"/>
<path d="M842 175 c0 -16 2 -22 5 -12 2 9 2 23 0 30 -3 6 -5 -1 -5 -18z"/>
<path d="M1212 175 c0 -16 2 -22 5 -12 2 9 2 23 0 30 -3 6 -5 -1 -5 -18z"/>
<path d="M1592 175 c0 -16 2 -22 5 -12 2 9 2 23 0 30 -3 6 -5 -1 -5 -18z"/>
<path d="M1972 175 c0 -16 2 -22 5 -12 2 9 2 23 0 30 -3 6 -5 -1 -5 -18z"/>
<path d="M2342 175 c0 -16 2 -22 5 -12 2 9 2 23 0 30 -3 6 -5 -1 -5 -18z"/>
<path d="M2722 175 c0 -16 2 -22 5 -12 2 9 2 23 0 30 -3 6 -5 -1 -5 -18z"/>
<path d="M3287 187 c-3 -7 -1 -20 3 -28 7 -11 10 -10 16 4 4 10 2 23 -3 28 -7
7 -12 6 -16 -4z"/>
<path d="M491 174 c0 -11 3 -14 6 -6 3 7 2 16 -1 19 -3 4 -6 -2 -5 -13z"/>
<path d="M521 174 c0 -11 3 -14 6 -6 3 7 2 16 -1 19 -3 4 -6 -2 -5 -13z"/>
<path d="M861 174 c0 -11 3 -14 6 -6 3 7 2 16 -1 19 -3 4 -6 -2 -5 -13z"/>
<path d="M891 174 c0 -11 3 -14 6 -6 3 7 2 16 -1 19 -3 4 -6 -2 -5 -13z"/>
<path d="M1241 174 c0 -11 3 -14 6 -6 3 7 2 16 -1 19 -3 4 -6 -2 -5 -13z"/>
<path d="M1271 174 c0 -11 3 -14 6 -6 3 7 2 16 -1 19 -3 4 -6 -2 -5 -13z"/>
<path d="M1611 174 c0 -11 3 -14 6 -6 3 7 2 16 -1 19 -3 4 -6 -2 -5 -13z"/>
<path d="M1641 174 c0 -11 3 -14 6 -6 3 7 2 16 -1 19 -3 4 -6 -2 -5 -13z"/>
<path d="M1991 174 c0 -11 3 -14 6 -6 3 7 2 16 -1 19 -3 4 -6 -2 -5 -13z"/>
<path d="M2021 174 c0 -11 3 -14 6 -6 3 7 2 16 -1 19 -3 4 -6 -2 -5 -13z"/>
<path d="M2371 174 c0 -11 3 -14 6 -6 3 7 2 16 -1 19 -3 4 -6 -2 -5 -13z"/>
<path d="M2401 174 c0 -11 3 -14 6 -6 3 7 2 16 -1 19 -3 4 -6 -2 -5 -13z"/>
<path d="M2751 174 c0 -11 3 -14 6 -6 3 7 2 16 -1 19 -3 4 -6 -2 -5 -13z"/>
<path d="M2781 174 c0 -11 3 -14 6 -6 3 7 2 16 -1 19 -3 4 -6 -2 -5 -13z"/>
<path d="M2801 174 c0 -11 3 -14 6 -6 3 7 2 16 -1 19 -3 4 -6 -2 -5 -13z"/>
<path d="M2830 175 c0 -8 5 -15 10 -15 6 0 10 7 10 15 0 8 -4 15 -10 15 -5 0
-10 -7 -10 -15z"/>
<path d="M2871 174 c0 -11 3 -14 6 -6 3 7 2 16 -1 19 -3 4 -6 -2 -5 -13z"/>
<path d="M3031 174 c0 -11 3 -14 6 -6 3 7 2 16 -1 19 -3 4 -6 -2 -5 -13z"/>
<path d="M3060 175 c0 -8 5 -15 10 -15 6 0 10 7 10 15 0 8 -4 15 -10 15 -5 0
-10 -7 -10 -15z"/>
<path d="M3101 174 c0 -11 3 -14 6 -6 3 7 2 16 -1 19 -3 4 -6 -2 -5 -13z"/>
<path d="M3121 174 c0 -11 3 -14 6 -6 3 7 2 16 -1 19 -3 4 -6 -2 -5 -13z"/>
<path d="M3151 174 c0 -11 3 -14 6 -6 3 7 2 16 -1 19 -3 4 -6 -2 -5 -13z"/>
<path d="M3331 174 c0 -11 3 -14 6 -6 3 7 2 16 -1 19 -3 4 -6 -2 -5 -13z"/>
<path d="M3351 174 c0 -11 3 -14 6 -6 3 7 2 16 -1 19 -3 4 -6 -2 -5 -13z"/>
<path d="M3380 175 c0 -8 5 -15 10 -15 6 0 10 7 10 15 0 8 -4 15 -10 15 -5 0
-10 -7 -10 -15z"/>
<path d="M3421 174 c0 -11 3 -14 6 -6 3 7 2 16 -1 19 -3 4 -6 -2 -5 -13z"/>
<path d="M3580 178 c0 -9 -6 -19 -12 -21 -10 -4 -10 -6 0 -6 14 -1 28 26 18
36 -3 4 -6 -1 -6 -9z"/>
<path d="M3611 174 c0 -11 3 -14 6 -6 3 7 2 16 -1 19 -3 4 -6 -2 -5 -13z"/>
<path d="M3631 174 c0 -11 3 -14 6 -6 3 7 2 16 -1 19 -3 4 -6 -2 -5 -13z"/>
<path d="M3660 175 c0 -8 5 -15 10 -15 6 0 10 7 10 15 0 8 -4 15 -10 15 -5 0
-10 -7 -10 -15z"/>
<path d="M3701 174 c0 -11 3 -14 6 -6 3 7 2 16 -1 19 -3 4 -6 -2 -5 -13z"/>
<path d="M3861 174 c0 -11 3 -14 6 -6 3 7 2 16 -1 19 -3 4 -6 -2 -5 -13z"/>
<path d="M3890 175 c0 -8 5 -15 10 -15 6 0 10 7 10 15 0 8 -4 15 -10 15 -5 0
-10 -7 -10 -15z"/>
<path d="M3931 174 c0 -11 3 -14 6 -6 3 7 2 16 -1 19 -3 4 -6 -2 -5 -13z"/>
<path d="M3951 174 c0 -11 3 -14 6 -6 3 7 2 16 -1 19 -3 4 -6 -2 -5 -13z"/>
<path d="M3981 174 c0 -11 3 -14 6 -6 3 7 2 16 -1 19 -3 4 -6 -2 -5 -13z"/>
<path d="M4141 174 c0 -11 3 -14 6 -6 3 7 2 16 -1 19 -3 4 -6 -2 -5 -13z"/>
<path d="M4170 175 c0 -8 5 -15 10 -15 6 0 10 7 10 15 0 8 -4 15 -10 15 -5 0
-10 -7 -10 -15z"/>
<path d="M4211 174 c0 -11 3 -14 6 -6 3 7 2 16 -1 19 -3 4 -6 -2 -5 -13z"/>
<path d="M4231 174 c0 -11 3 -14 6 -6 3 7 2 16 -1 19 -3 4 -6 -2 -5 -13z"/>
<path d="M4261 174 c0 -11 3 -14 6 -6 3 7 2 16 -1 19 -3 4 -6 -2 -5 -13z"/>
<path d="M3841 164 c0 -11 3 -14 6 -6 3 7 2 16 -1 19 -3 4 -6 -2 -5 -13z"/>
<path d="M4090 171 c0 -6 4 -13 10 -16 6 -3 7 1 4 9 -7 18 -14 21 -14 7z"/>
<path d="M4121 164 c0 -11 3 -14 6 -6 3 7 2 16 -1 19 -3 4 -6 -2 -5 -13z"/>
<path d="M2998 153 c7 -3 16 -2 19 1 4 3 -2 6 -13 5 -11 0 -14 -3 -6 -6z"/>
<path d="M1080 73 c13 -18 25 -33 27 -33 8 0 -17 38 -33 51 -11 9 -9 2 6 -18z"/>
<path d="M1273 65 c0 -22 2 -30 4 -17 2 12 2 30 0 40 -3 9 -5 -1 -4 -23z"/>
<path d="M2980 73 c13 -18 25 -33 27 -33 8 0 -17 38 -33 51 -11 9 -9 2 6 -18z"/>
<path d="M3183 65 c0 -22 2 -30 4 -17 2 12 2 30 0 40 -3 9 -5 -1 -4 -23z"/>
<path d="M3471 81 c-7 -13 -7 -23 2 -35 10 -14 12 -11 12 19 0 40 -1 41 -14
16z"/>
<path d="M3552 75 c0 -16 2 -22 5 -12 2 9 2 23 0 30 -3 6 -5 -1 -5 -18z"/>
<path d="M3623 65 c0 -22 2 -30 4 -17 2 12 2 30 0 40 -3 9 -5 -1 -4 -23z"/>
<path d="M3720 98 c0 -16 23 -68 31 -68 5 0 3 12 -3 28 -12 27 -28 51 -28 40z"/>
<path d="M1502 60 c0 -19 2 -27 5 -17 2 9 2 25 0 35 -3 9 -5 1 -5 -18z"/>
<path d="M1708 60 c-3 -17 -1 -30 4 -30 4 0 8 14 8 30 0 39 -6 39 -12 0z"/>
<path d="M3412 60 c0 -19 2 -27 5 -17 2 9 2 25 0 35 -3 9 -5 1 -5 -18z"/>
<path d="M3669 62 c-3 -20 -2 -29 4 -23 5 5 7 19 5 32 -3 20 -5 19 -9 -9z"/>
<path d="M1932 55 c0 -16 2 -22 5 -12 2 9 2 23 0 30 -3 6 -5 -1 -5 -18z"/>
<path d="M1132 50 c0 -14 2 -19 5 -12 2 6 2 18 0 25 -3 6 -5 1 -5 -13z"/>
<path d="M1162 50 c0 -14 2 -19 5 -12 2 6 2 18 0 25 -3 6 -5 1 -5 -13z"/>
<path d="M1192 50 c0 -14 2 -19 5 -12 2 6 2 18 0 25 -3 6 -5 1 -5 -13z"/>
<path d="M1222 50 c0 -14 2 -19 5 -12 2 6 2 18 0 25 -3 6 -5 1 -5 -13z"/>
<path d="M1302 50 c0 -14 2 -19 5 -12 2 6 2 18 0 25 -3 6 -5 1 -5 -13z"/>
<path d="M1372 50 c0 -14 2 -19 5 -12 2 6 2 18 0 25 -3 6 -5 1 -5 -13z"/>
<path d="M1612 50 c0 -14 2 -19 5 -12 2 6 2 18 0 25 -3 6 -5 1 -5 -13z"/>
<path d="M1652 50 c0 -14 2 -19 5 -12 2 6 2 18 0 25 -3 6 -5 1 -5 -13z"/>
<path d="M1742 40 c0 -19 2 -27 5 -17 2 9 2 25 0 35 -3 9 -5 1 -5 -18z"/>
<path d="M1772 50 c0 -14 2 -19 5 -12 2 6 2 18 0 25 -3 6 -5 1 -5 -13z"/>
<path d="M1852 50 c0 -14 2 -19 5 -12 2 6 2 18 0 25 -3 6 -5 1 -5 -13z"/>
<path d="M1882 50 c0 -14 2 -19 5 -12 2 6 2 18 0 25 -3 6 -5 1 -5 -13z"/>
<path d="M1912 50 c0 -14 2 -19 5 -12 2 6 2 18 0 25 -3 6 -5 1 -5 -13z"/>
<path d="M1960 66 c0 -3 9 -10 20 -16 11 -6 20 -8 20 -6 0 3 -9 10 -20 16 -11
6 -20 8 -20 6z"/>
<path d="M3042 50 c0 -14 2 -19 5 -12 2 6 2 18 0 25 -3 6 -5 1 -5 -13z"/>
<path d="M3072 50 c0 -14 2 -19 5 -12 2 6 2 18 0 25 -3 6 -5 1 -5 -13z"/>
<path d="M3102 50 c0 -14 2 -19 5 -12 2 6 2 18 0 25 -3 6 -5 1 -5 -13z"/>
<path d="M3132 50 c0 -14 2 -19 5 -12 2 6 2 18 0 25 -3 6 -5 1 -5 -13z"/>
<path d="M3212 50 c0 -14 2 -19 5 -12 2 6 2 18 0 25 -3 6 -5 1 -5 -13z"/>
<path d="M3282 50 c0 -14 2 -19 5 -12 2 6 2 18 0 25 -3 6 -5 1 -5 -13z"/>
<path d="M3804 59 c-3 -6 -2 -15 3 -20 5 -5 9 -1 9 11 0 23 -2 24 -12 9z"/>
<path d="M3836 57 c3 -10 9 -15 12 -12 3 3 0 11 -7 18 -10 9 -11 8 -5 -6z"/>
<path d="M3902 50 c0 -14 2 -19 5 -12 2 6 2 18 0 25 -3 6 -5 1 -5 -13z"/>
<path d="M3930 50 c6 -11 13 -20 16 -20 2 0 0 9 -6 20 -6 11 -13 20 -16 20 -2
0 0 -9 6 -20z"/>
<path d="M3980 66 c0 -3 9 -10 20 -16 11 -6 20 -8 20 -6 0 3 -9 10 -20 16 -11
6 -20 8 -20 6z"/>
<path d="M1251 44 c0 -11 3 -14 6 -6 3 7 2 16 -1 19 -3 4 -6 -2 -5 -13z"/>
<path d="M1320 51 c0 -6 4 -13 10 -16 6 -3 7 1 4 9 -7 18 -14 21 -14 7z"/>
<path d="M1476 43 c-6 -14 -5 -15 5 -6 7 7 10 15 7 18 -3 3 -9 -2 -12 -12z"/>
<path d="M1670 51 c0 -6 4 -13 10 -16 6 -3 7 1 4 9 -7 18 -14 21 -14 7z"/>
<path d="M1826 43 c-6 -14 -5 -15 5 -6 7 7 10 15 7 18 -3 3 -9 -2 -12 -12z"/>
<path d="M3161 44 c0 -11 3 -14 6 -6 3 7 2 16 -1 19 -3 4 -6 -2 -5 -13z"/>
<path d="M3230 51 c0 -6 4 -13 10 -16 6 -3 7 1 4 9 -7 18 -14 21 -14 7z"/>
<path d="M3386 43 c-6 -14 -5 -15 5 -6 7 7 10 15 7 18 -3 3 -9 -2 -12 -12z"/>
<path d="M3876 43 c-6 -14 -5 -15 5 -6 7 7 10 15 7 18 -3 3 -9 -2 -12 -12z"/>
<path d="M1557 33 c-3 -5 5 -8 18 -8 13 0 21 3 18 8 -6 9 -30 9 -36 0z"/>
</g>
</svg>
