<?xml version="1.0" encoding="UTF-8" standalone="no"?>
<!-- Created with Inkscape (http://www.inkscape.org/) -->

<svg
   version="1.1"
   id="svg2"
   xml:space="preserve"
   width="313.33334"
   height="193.33333"
   viewBox="0 0 313.33334 193.33333"
   sodipodi:docname="plot.svg"
   inkscape:version="1.1.2 (0a00cf5339, 2022-02-04)"
   xmlns:inkscape="http://www.inkscape.org/namespaces/inkscape"
   xmlns:sodipodi="http://sodipodi.sourceforge.net/DTD/sodipodi-0.dtd"
   xmlns="http://www.w3.org/2000/svg"
   xmlns:svg="http://www.w3.org/2000/svg"><defs
     id="defs6"><clipPath
       clipPathUnits="userSpaceOnUse"
       id="clipPath20"><path
         d="M 0,0 H 235 V 145 H 0 Z"
         id="path18" /></clipPath><clipPath
       clipPathUnits="userSpaceOnUse"
       id="clipPath34"><path
         d="M 0,0 H 235 V 145 H 0 Z"
         id="path32" /></clipPath><clipPath
       clipPathUnits="userSpaceOnUse"
       id="clipPath48"><path
         d="M 0,0 H 235 V 145 H 0 Z"
         id="path46" /></clipPath><clipPath
       clipPathUnits="userSpaceOnUse"
       id="clipPath62"><path
         d="M 0,0 H 235 V 145 H 0 Z"
         id="path60" /></clipPath><clipPath
       clipPathUnits="userSpaceOnUse"
       id="clipPath96"><path
         d="m 14,14 h 95 V 68 H 14 Z"
         id="path94" /></clipPath><clipPath
       clipPathUnits="userSpaceOnUse"
       id="clipPath118"><path
         d="m 90,14 h 7 v 7 h -7 z"
         id="path116" /></clipPath><clipPath
       clipPathUnits="userSpaceOnUse"
       id="clipPath136"><path
         d="m 132,14 h 94 v 49 h -94 z"
         id="path134" /></clipPath><clipPath
       clipPathUnits="userSpaceOnUse"
       id="clipPath158"><path
         d="m 207,14 h 8 v 7 h -8 z"
         id="path156" /></clipPath><clipPath
       clipPathUnits="userSpaceOnUse"
       id="clipPath176"><path
         d="m 14,84 h 95 v 49 H 14 Z"
         id="path174" /></clipPath><clipPath
       clipPathUnits="userSpaceOnUse"
       id="clipPath198"><path
         d="m 90,84 h 7 v 7 h -7 z"
         id="path196" /></clipPath><clipPath
       clipPathUnits="userSpaceOnUse"
       id="clipPath216"><path
         d="m 132,84 h 94 v 46 h -94 z"
         id="path214" /></clipPath><clipPath
       clipPathUnits="userSpaceOnUse"
       id="clipPath238"><path
         d="m 207,84 h 8 v 7 h -8 z"
         id="path236" /></clipPath></defs><sodipodi:namedview
     id="namedview4"
     pagecolor="#ffffff"
     bordercolor="#666666"
     borderopacity="1.0"
     inkscape:pageshadow="2"
     inkscape:pageopacity="0.0"
     inkscape:pagecheckerboard="0"
     showgrid="false"
     inkscape:zoom="4.2670211"
     inkscape:cx="156.66667"
     inkscape:cy="96.671656"
     inkscape:window-width="1920"
     inkscape:window-height="1080"
     inkscape:window-x="0"
     inkscape:window-y="0"
     inkscape:window-maximized="1"
     inkscape:current-layer="g8" /><g
     id="g8"
     inkscape:groupmode="layer"
     inkscape:label="plot"
     transform="matrix(1.3333333,0,0,1.3333333,0,1.5e-6)"><g
       id="g10"><path
         d="M 0,0 H 235 V 145 H 0 Z"
         style="fill:#ffffff;fill-opacity:1;fill-rule:nonzero;stroke:none"
         id="path12" /><g
         id="g14"><g
           id="g16"
           clip-path="url(#clipPath20)"><g
             id="g22"><path
               d="M 9.999999,68 C 44.333333,68 78.666666,68 113,68 113,50 113,31.999999 113,13.999999 78.666666,31.999999 44.333333,50 9.999999,68 c 0,0 0,0 0,0 z"
               style="fill:#ffffff;fill-opacity:1;fill-rule:nonzero;stroke:none"
               id="path24" /><path
               d="M 9.999999,68 C 44.333333,50 78.666666,31.999999 113,13.999999 c -34.333334,0 -68.666667,0 -103.000001,0 0,18 0,36.000001 0,54.000001 0,0 0,0 0,0 z"
               style="fill:#ffffff;fill-opacity:1;fill-rule:nonzero;stroke:none"
               id="path26" /></g></g></g><g
         id="g28"><g
           id="g30"
           clip-path="url(#clipPath34)"><g
             id="g36"><path
               d="m 127.99999,68 c 34,0 68,0 101.99999,0 0,-18 0,-36.000001 0,-54.000001 C 195.99999,31.999999 161.99999,50 127.99999,68 c 0,0 0,0 0,0 z"
               style="fill:#ffffff;fill-opacity:1;fill-rule:nonzero;stroke:none"
               id="path38" /><path
               d="m 127.99999,68 c 34,-18 68,-36.000001 101.99999,-54.000001 -33.99999,0 -67.99999,0 -101.99999,0 0,18 0,36.000001 0,54.000001 0,0 0,0 0,0 z"
               style="fill:#ffffff;fill-opacity:1;fill-rule:nonzero;stroke:none"
               id="path40" /></g></g></g><g
         id="g42"><g
           id="g44"
           clip-path="url(#clipPath48)"><g
             id="g50"><path
               d="m 9.999999,138 c 34.333334,0 68.666667,0 103.000001,0 0,-18 0,-36 0,-54 -34.333334,18 -68.666667,36 -103.000001,54 0,0 0,0 0,0 z"
               style="fill:#ffffff;fill-opacity:1;fill-rule:nonzero;stroke:none"
               id="path52" /><path
               d="M 9.999999,138 C 44.333333,120 78.666666,102 113,84 78.666666,84 44.333333,84 9.999999,84 c 0,18 0,36 0,54 0,0 0,0 0,0 z"
               style="fill:#ffffff;fill-opacity:1;fill-rule:nonzero;stroke:none"
               id="path54" /></g></g></g><g
         id="g56"><g
           id="g58"
           clip-path="url(#clipPath62)"><g
             id="g64"><path
               d="m 127.99999,138 c 34,0 68,0 101.99999,0 0,-18 0,-36 0,-54 -33.99999,18 -67.99999,36 -101.99999,54 0,0 0,0 0,0 z"
               style="fill:#ffffff;fill-opacity:1;fill-rule:nonzero;stroke:none"
               id="path66" /><path
               d="m 127.99999,138 c 34,-18 68,-36 101.99999,-54 -33.99999,0 -67.99999,0 -101.99999,0 0,18 0,36 0,54 0,0 0,0 0,0 z"
               style="fill:#ffffff;fill-opacity:1;fill-rule:nonzero;stroke:none"
               id="path68" /></g></g></g><text
         transform="translate(4.96875,12.425781)"
         style="font-variant:normal;font-weight:normal;font-size:8px;font-family:'DejaVu Sans';-inkscape-font-specification:DejaVuSans;writing-mode:lr-tb;fill:#000000;fill-opacity:1;fill-rule:nonzero;stroke:none"
         id="text72"><tspan
           x="0"
           y="0"
           id="tspan70">A</tspan></text><text
         transform="matrix(0.9999985,0,0,1,122.71094,12.425781)"
         style="font-variant:normal;font-weight:normal;font-size:8px;font-family:'DejaVu Sans';-inkscape-font-specification:DejaVuSans;writing-mode:lr-tb;fill:#000000;fill-opacity:1;fill-rule:nonzero;stroke:none"
         id="text76"><tspan
           x="0"
           y="0"
           id="tspan74">B</tspan></text><text
         transform="translate(5.09375,82.425781)"
         style="font-variant:normal;font-weight:normal;font-size:8.00001px;font-family:'DejaVu Sans';-inkscape-font-specification:DejaVuSans;writing-mode:lr-tb;fill:#000000;fill-opacity:1;fill-rule:nonzero;stroke:none"
         id="text80"><tspan
           x="0"
           y="0"
           id="tspan78">C</tspan></text><text
         transform="matrix(0.999998,0,0,1,122.32813,82.425781)"
         style="font-variant:normal;font-weight:normal;font-size:8.00001px;font-family:'DejaVu Sans';-inkscape-font-specification:DejaVuSans;writing-mode:lr-tb;fill:#000000;fill-opacity:1;fill-rule:nonzero;stroke:none"
         id="text84"><tspan
           x="0"
           y="0"
           id="tspan82">D</tspan></text><path
         d="m 14.684,59 2.925,-0.965 2.926,-1.14 2.926,-1.333 2.926,-1.531 2.925,-1.742 2.926,-1.937 2.926,-2.125 2.926,-2.278 2.926,-2.39 2.925,-2.45 2.93,-2.453 2.926,-2.398 2.926,-2.289 2.925,-2.137 2.926,-1.957 2.926,-1.758 2.926,-1.551 2.926,-1.347 2.925,-1.157 2.926,-0.984 2.926,-0.824 2.93,-0.688 2.925,-0.566 2.926,-0.469 2.926,-0.386 2.926,-0.313 2.926,-0.254 2.925,-0.211 2.926,-0.168 2.926,-0.133 2.926,-0.113 2.925,-0.086"
         style="fill:none;stroke:#737373;stroke-width:1;stroke-linecap:butt;stroke-linejoin:miter;stroke-miterlimit:10;stroke-dasharray:3, 3;stroke-dashoffset:0;stroke-opacity:1"
         id="path86" /><path
         d="m 14.684,59 5.851,-1.773 2.926,-0.883 11.703,-3.547 2.926,-0.883 5.851,-1.773 2.93,-0.887 2.926,-0.887 2.926,-0.883 11.703,-3.546 2.926,-0.883 8.777,-2.66 2.93,-0.887 2.925,-0.883 11.704,-3.547 2.925,-0.883 11.703,-3.547"
         style="fill:none;stroke:#4e79a7;stroke-width:1.5;stroke-linecap:butt;stroke-linejoin:miter;stroke-miterlimit:10;stroke-dasharray:none;stroke-opacity:0.8"
         id="path88" /></g><g
       id="g90"><g
         id="g92"
         clip-path="url(#clipPath96)"><path
           d="m 14.684,59 2.925,-148.742 2.926,-446.293 2.926,-746.574 2.926,-1049.586 2.925,-1355.297 2.926,-1663.696 2.926,-1974.769 2.926,-2288.5 2.926,-2604.871 2.925,-2923.875 2.93,-3245.477 2.926,-3569.683 2.926,-3896.469 2.925,-4225.824 2.926,-4557.723 2.926,-4892.18 2.926,-5229.14 2.926,-5568.625 2.925,-5910.602 2.926,-6255.066 2.926,-6602 2.93,-6951.399 2.925,-7303.234 2.926,-7657.5 2.926,-8014.195 2.926,-8373.3 2.926,-8734.79 2.925,-9098.69 2.926,-9464.92 2.926,-9833.56 2.926,-10204.5 2.925,-10577.83 v 330681.13 l -2.925,-10576.05 -2.926,-10202.75 -2.926,-9831.78 -2.926,-9463.15 -2.925,-9096.91 -2.926,-8733.02 L 87.836,99096.023 84.91,91083.594 81.984,83427.859 79.059,76126.406 76.129,69176.781 73.203,62576.555 70.277,56323.258 67.352,50414.43 64.426,44847.578 61.5,39620.207 58.574,34729.809 55.648,30173.852 52.723,25949.797 49.797,22055.102 46.871,18487.188 43.941,15243.48 41.016,12321.383 38.09,9718.281 35.164,7431.555 32.238,5458.555 29.312,3796.629 26.387,2443.105 23.461,1395.293 20.535,650.488 17.609,205.973 Z"
           style="fill:#4e79a7;fill-opacity:0.2;fill-rule:nonzero;stroke:none"
           id="path98" /><path
           d="m 34.285,38.988 -1.64,-1.64 0.875,-0.875 1.64,1.64 1.641,-1.64 0.89,0.875 -1.64,1.64 1.625,1.657 -0.875,0.875 -1.625,-1.641 -1.641,1.641 -0.89,-0.891 z"
           style="fill:#000000;fill-opacity:1;fill-rule:nonzero;stroke:#ffffff;stroke-width:0.1;stroke-linecap:butt;stroke-linejoin:miter;stroke-miterlimit:10;stroke-dasharray:none;stroke-opacity:1"
           id="path100" /><path
           d="m 45.988,20.09 -1.64,-1.641 0.875,-0.875 1.64,1.641 1.641,-1.641 0.891,0.875 -1.641,1.641 1.625,1.656 -0.875,0.875 -1.625,-1.641 -1.641,1.641 -0.89,-0.891 z"
           style="fill:#000000;fill-opacity:1;fill-rule:nonzero;stroke:#ffffff;stroke-width:0.1;stroke-linecap:butt;stroke-linejoin:miter;stroke-miterlimit:10;stroke-dasharray:none;stroke-opacity:1"
           id="path102" /><path
           d="m 57.691,36.719 -1.64,-1.641 0.875,-0.875 1.64,1.641 1.641,-1.641 0.891,0.875 -1.641,1.641 1.625,1.656 -0.875,0.875 -1.625,-1.641 -1.641,1.641 -0.89,-0.891 z"
           style="fill:#000000;fill-opacity:1;fill-rule:nonzero;stroke:#ffffff;stroke-width:0.1;stroke-linecap:butt;stroke-linejoin:miter;stroke-miterlimit:10;stroke-dasharray:none;stroke-opacity:1"
           id="path104" /><path
           d="m 69.398,20.973 -1.64,-1.641 0.875,-0.875 1.64,1.641 1.641,-1.641 0.891,0.875 -1.641,1.641 1.625,1.656 -0.875,0.875 -1.625,-1.641 -1.641,1.641 -0.89,-0.891 z"
           style="fill:#000000;fill-opacity:1;fill-rule:nonzero;stroke:#ffffff;stroke-width:0.1;stroke-linecap:butt;stroke-linejoin:miter;stroke-miterlimit:10;stroke-dasharray:none;stroke-opacity:1"
           id="path106" /><path
           d="M 81.102,21.641 79.461,20 l 0.875,-0.875 1.641,1.641 1.64,-1.641 0.891,0.875 -1.641,1.641 1.625,1.656 -0.875,0.875 -1.625,-1.641 -1.64,1.641 -0.891,-0.891 z"
           style="fill:#000000;fill-opacity:1;fill-rule:nonzero;stroke:#ffffff;stroke-width:0.1;stroke-linecap:butt;stroke-linejoin:miter;stroke-miterlimit:10;stroke-dasharray:none;stroke-opacity:1"
           id="path108" /><path
           d="m 92.805,16.812 -1.641,-1.64 0.875,-0.875 1.641,1.641 1.64,-1.641 0.891,0.875 -1.641,1.64 1.625,1.657 -0.875,0.875 -1.625,-1.641 -1.64,1.641 -0.891,-0.891 z"
           style="fill:#000000;fill-opacity:1;fill-rule:nonzero;stroke:none"
           id="path110" /></g></g><g
       id="g112"><g
         id="g114"
         clip-path="url(#clipPath118)"><path
           d="m 92.805,16.812 -1.641,-1.64 0.875,-0.875 1.641,1.641 1.64,-1.641 0.891,0.875 -1.641,1.64 1.625,1.657 -0.875,0.875 -1.625,-1.641 -1.64,1.641 -0.891,-0.891 z"
           style="fill:none;stroke:#ffffff;stroke-width:0.1;stroke-linecap:butt;stroke-linejoin:miter;stroke-miterlimit:10;stroke-dasharray:none;stroke-opacity:1"
           id="path120" /></g></g><g
       id="g122"><path
         d="m 104.512,22.23 -1.641,-1.64 0.875,-0.875 1.641,1.64 1.64,-1.64 0.891,0.875 -1.641,1.64 1.625,1.657 -0.875,0.875 -1.625,-1.641 -1.64,1.641 -0.891,-0.891 z"
         style="fill:#000000;fill-opacity:1;fill-rule:nonzero;stroke:#ffffff;stroke-width:0.1;stroke-linecap:butt;stroke-linejoin:miter;stroke-miterlimit:10;stroke-dasharray:none;stroke-opacity:1"
         id="path124" /><path
         d="m 132.637,59 2.898,-0.965 2.899,-1.14 2.894,-1.333 2.899,-1.531 2.898,-1.742 2.898,-1.937 2.899,-2.125 2.894,-2.278 2.899,-2.39 2.898,-2.45 2.899,-2.453 2.898,-2.398 2.899,-2.289 2.894,-2.137 2.899,-1.957 2.898,-1.758 2.898,-1.551 2.899,-1.347 2.894,-1.157 2.899,-0.984 2.898,-0.824 2.899,-0.688 2.898,-0.566 2.899,-0.469 2.894,-0.386 2.899,-0.313 2.898,-0.254 2.898,-0.211 2.899,-0.168 2.894,-0.133 2.899,-0.113 2.898,-0.086"
         style="fill:none;stroke:#737373;stroke-width:1;stroke-linecap:butt;stroke-linejoin:miter;stroke-miterlimit:10;stroke-dasharray:3, 3;stroke-dashoffset:0;stroke-opacity:1"
         id="path126" /><path
         d="m 132.637,59 2.898,-0.531 2.899,-0.586 2.894,-0.641 2.899,-0.707 2.898,-0.765 2.898,-0.836 2.899,-0.899 2.894,-0.969 2.899,-1.035 2.898,-1.101 2.899,-1.16 2.898,-1.223 2.899,-1.274 2.894,-1.316 2.899,-1.355 2.898,-1.383 2.898,-1.399 2.899,-1.406 2.894,-1.402 2.899,-1.387 2.898,-1.359 2.899,-1.325 2.898,-1.281 2.899,-1.23 2.894,-1.172 2.899,-1.11 2.898,-1.046 2.898,-0.981 2.899,-0.91 2.894,-0.844 2.899,-0.781 2.898,-0.715"
         style="fill:none;stroke:#f28e2b;stroke-width:1.5;stroke-linecap:butt;stroke-linejoin:miter;stroke-miterlimit:10;stroke-dasharray:none;stroke-opacity:0.8"
         id="path128" /></g><g
       id="g130"><g
         id="g132"
         clip-path="url(#clipPath136)"><path
           d="m 132.637,59 2.898,-4.398 2.899,-0.579 2.894,-1.214 2.899,-1.082 2.898,-1.153 2.898,-1.183 2.899,-1.231 2.894,-1.281 2.899,-1.332 2.898,-1.387 2.899,-1.433 2.898,-1.485 2.899,-1.527 2.894,-1.563 2.899,-1.593 2.898,-1.614 5.797,-3.25 2.894,-1.613 2.899,-1.598 2.898,-1.562 2.899,-1.524 2.898,-1.476 2.899,-1.422 2.894,-1.363 2.899,-1.293 2.898,-1.231 2.898,-1.156 2.899,-1.086 2.894,-1.019 2.899,-0.957 2.898,-0.993 V 36.34 l -2.898,0.437 -2.899,0.602 -2.894,0.672 -2.899,0.734 -2.898,0.801 -2.898,0.867 -2.899,0.926 -2.894,0.984 -2.899,1.039 -2.898,1.086 -2.899,1.125 -2.898,1.153 -2.899,1.179 -2.894,1.188 -2.899,1.187 -2.898,1.172 -2.898,1.153 -2.899,1.117 -2.894,1.074 -2.899,1.019 -2.898,0.957 -2.899,0.891 -2.898,0.813 -2.899,0.738 -2.894,0.656 -2.899,0.57 -2.898,0.485 -2.898,0.383 -2.899,0.324 -2.894,0.074 -2.899,0.594 z"
           style="fill:#f28e2b;fill-opacity:0.2;fill-rule:nonzero;stroke:none"
           id="path138" /><path
           d="m 152.039,38.988 -1.641,-1.64 0.875,-0.875 1.641,1.64 1.641,-1.64 0.89,0.875 -1.64,1.64 1.625,1.657 -0.875,0.875 -1.625,-1.641 -1.641,1.641 -0.891,-0.891 z"
           style="fill:#000000;fill-opacity:1;fill-rule:nonzero;stroke:#ffffff;stroke-width:0.1;stroke-linecap:butt;stroke-linejoin:miter;stroke-miterlimit:10;stroke-dasharray:none;stroke-opacity:1"
           id="path140" /><path
           d="m 163.629,20.09 -1.641,-1.641 0.875,-0.875 1.641,1.641 1.641,-1.641 0.89,0.875 -1.64,1.641 1.625,1.656 -0.875,0.875 -1.625,-1.641 -1.641,1.641 -0.891,-0.891 z"
           style="fill:#000000;fill-opacity:1;fill-rule:nonzero;stroke:#ffffff;stroke-width:0.1;stroke-linecap:butt;stroke-linejoin:miter;stroke-miterlimit:10;stroke-dasharray:none;stroke-opacity:1"
           id="path142" /><path
           d="m 175.223,36.719 -1.641,-1.641 0.875,-0.875 1.641,1.641 1.64,-1.641 0.891,0.875 -1.641,1.641 1.625,1.656 -0.875,0.875 -1.625,-1.641 -1.64,1.641 -0.891,-0.891 z"
           style="fill:#000000;fill-opacity:1;fill-rule:nonzero;stroke:#ffffff;stroke-width:0.1;stroke-linecap:butt;stroke-linejoin:miter;stroke-miterlimit:10;stroke-dasharray:none;stroke-opacity:1"
           id="path144" /><path
           d="m 186.812,20.973 -1.64,-1.641 0.875,-0.875 1.641,1.641 1.64,-1.641 0.891,0.875 -1.641,1.641 1.625,1.656 -0.875,0.875 -1.625,-1.641 -1.641,1.641 -0.89,-0.891 z"
           style="fill:#000000;fill-opacity:1;fill-rule:nonzero;stroke:#ffffff;stroke-width:0.1;stroke-linecap:butt;stroke-linejoin:miter;stroke-miterlimit:10;stroke-dasharray:none;stroke-opacity:1"
           id="path146" /><path
           d="m 198.402,21.641 -1.64,-1.641 0.875,-0.875 1.64,1.641 1.641,-1.641 0.891,0.875 -1.641,1.641 1.625,1.656 -0.875,0.875 -1.625,-1.641 -1.641,1.641 -0.89,-0.891 z"
           style="fill:#000000;fill-opacity:1;fill-rule:nonzero;stroke:#ffffff;stroke-width:0.1;stroke-linecap:butt;stroke-linejoin:miter;stroke-miterlimit:10;stroke-dasharray:none;stroke-opacity:1"
           id="path148" /><path
           d="m 209.992,16.812 -1.64,-1.64 0.875,-0.875 1.64,1.641 1.641,-1.641 0.89,0.875 -1.64,1.64 1.625,1.657 -0.875,0.875 -1.625,-1.641 -1.641,1.641 -0.89,-0.891 z"
           style="fill:#000000;fill-opacity:1;fill-rule:nonzero;stroke:none"
           id="path150" /></g></g><g
       id="g152"><g
         id="g154"
         clip-path="url(#clipPath158)"><path
           d="m 209.992,16.812 -1.64,-1.64 0.875,-0.875 1.64,1.641 1.641,-1.641 0.89,0.875 -1.64,1.64 1.625,1.657 -0.875,0.875 -1.625,-1.641 -1.641,1.641 -0.89,-0.891 z"
           style="fill:none;stroke:#ffffff;stroke-width:0.1;stroke-linecap:butt;stroke-linejoin:miter;stroke-miterlimit:10;stroke-dasharray:none;stroke-opacity:1"
           id="path160" /></g></g><g
       id="g162"><path
         d="m 221.586,22.23 -1.641,-1.64 0.875,-0.875 1.641,1.64 1.641,-1.64 0.89,0.875 -1.64,1.64 1.625,1.657 -0.875,0.875 -1.625,-1.641 -1.641,1.641 -0.891,-0.891 z"
         style="fill:#000000;fill-opacity:1;fill-rule:nonzero;stroke:#ffffff;stroke-width:0.1;stroke-linecap:butt;stroke-linejoin:miter;stroke-miterlimit:10;stroke-dasharray:none;stroke-opacity:1"
         id="path164" /><path
         d="m 14.684,129 2.925,-0.965 2.926,-1.14 2.926,-1.333 2.926,-1.531 2.925,-1.742 2.926,-1.937 2.926,-2.125 2.926,-2.278 2.926,-2.39 2.925,-2.45 2.93,-2.453 2.926,-2.398 2.926,-2.289 2.925,-2.137 2.926,-1.957 2.926,-1.758 2.926,-1.551 2.926,-1.347 2.925,-1.157 2.926,-0.984 2.926,-0.824 2.93,-0.688 2.925,-0.566 2.926,-0.469 2.926,-0.386 2.926,-0.313 2.926,-0.254 2.925,-0.211 2.926,-0.168 2.926,-0.133 2.926,-0.113 2.925,-0.086"
         style="fill:none;stroke:#737373;stroke-width:1;stroke-linecap:butt;stroke-linejoin:miter;stroke-miterlimit:10;stroke-dasharray:3, 3;stroke-dashoffset:0;stroke-opacity:1"
         id="path166" /><path
         d="m 14.684,129 2.925,-10.805 2.926,6.172 2.926,0.953 2.926,1.285 2.925,4.79 2.926,-6.805 2.926,-3.231 2.926,-3.035 2.926,-7.808 2.925,3.425 2.93,-1.582 2.926,-0.254 2.926,-0.917 2.925,-1.84 2.926,-2.301 2.926,-1.582 2.926,-4.156 2.926,1.246 2.925,-1.301 2.926,-0.524 2.926,-0.988 2.93,1.207 2.925,1.153 2.926,0.324 2.926,4.012 2.926,-6.985 2.926,-3.535 2.925,-3.508 2.926,-6.652 2.926,1.918 2.926,-1.535 2.925,-0.461"
         style="fill:none;stroke:#e15759;stroke-width:1.5;stroke-linecap:butt;stroke-linejoin:miter;stroke-miterlimit:10;stroke-dasharray:none;stroke-opacity:0.8"
         id="path168" /></g><g
       id="g170"><g
         id="g172"
         clip-path="url(#clipPath176)"><path
           d="m 14.684,129 2.925,-11.984 2.926,5.132 2.926,0.528 2.926,1.383 2.925,5.98 2.926,-7.797 2.926,-3.59 2.926,-2.902 2.926,-6.59 2.925,2.434 2.93,-1.942 2.926,-0.121 2.926,0.301 2.925,-2.836 2.926,-2.656 2.926,-1.449 2.926,-2.938 2.926,0.254 2.925,-1.66 2.926,-0.391 2.926,0.231 2.93,0.215 2.925,0.789 2.926,0.457 2.926,5.234 2.926,-8 2.926,-3.926 2.925,-3.414 2.926,-5.398 2.926,0.488 2.926,-2.48 2.925,-1.219 v 9.09 l -2.925,-0.289 -2.926,0.582 -2.926,-3.348 -2.926,7.906 -2.925,3.602 -2.926,3.148 -2.926,5.973 -2.926,-2.797 -2.926,-0.188 -2.925,-1.511 -2.93,-2.203 -2.926,2.207 -2.926,0.656 -2.925,0.945 -2.926,-2.242 -2.926,5.371 -2.926,1.719 -2.926,1.941 -2.925,0.844 -2.926,2.141 -2.926,0.386 -2.93,1.223 -2.925,-4.418 -2.926,9.027 -2.926,3.168 -2.926,2.872 -2.926,5.808 -2.925,-3.598 -2.926,-1.187 -2.926,-1.371 -2.926,-7.215 z"
           style="fill:#e15759;fill-opacity:0.2;fill-rule:nonzero;stroke:none"
           id="path178" /><path
           d="m 34.285,108.988 -1.64,-1.64 0.875,-0.875 1.64,1.64 1.641,-1.64 0.89,0.875 -1.64,1.64 1.625,1.657 -0.875,0.875 -1.625,-1.641 -1.641,1.641 -0.89,-0.891 z"
           style="fill:#000000;fill-opacity:1;fill-rule:nonzero;stroke:#ffffff;stroke-width:0.1;stroke-linecap:butt;stroke-linejoin:miter;stroke-miterlimit:10;stroke-dasharray:none;stroke-opacity:1"
           id="path180" /><path
           d="m 45.988,90.09 -1.64,-1.641 0.875,-0.875 1.64,1.641 1.641,-1.641 0.891,0.875 -1.641,1.641 1.625,1.656 -0.875,0.875 -1.625,-1.641 -1.641,1.641 -0.89,-0.891 z"
           style="fill:#000000;fill-opacity:1;fill-rule:nonzero;stroke:#ffffff;stroke-width:0.1;stroke-linecap:butt;stroke-linejoin:miter;stroke-miterlimit:10;stroke-dasharray:none;stroke-opacity:1"
           id="path182" /><path
           d="m 57.691,106.719 -1.64,-1.641 0.875,-0.875 1.64,1.641 1.641,-1.641 0.891,0.875 -1.641,1.641 1.625,1.656 -0.875,0.875 -1.625,-1.641 -1.641,1.641 -0.89,-0.891 z"
           style="fill:#000000;fill-opacity:1;fill-rule:nonzero;stroke:#ffffff;stroke-width:0.1;stroke-linecap:butt;stroke-linejoin:miter;stroke-miterlimit:10;stroke-dasharray:none;stroke-opacity:1"
           id="path184" /><path
           d="m 69.398,90.973 -1.64,-1.641 0.875,-0.875 1.64,1.641 1.641,-1.641 0.891,0.875 -1.641,1.641 1.625,1.656 -0.875,0.875 -1.625,-1.641 -1.641,1.641 -0.89,-0.891 z"
           style="fill:#000000;fill-opacity:1;fill-rule:nonzero;stroke:#ffffff;stroke-width:0.1;stroke-linecap:butt;stroke-linejoin:miter;stroke-miterlimit:10;stroke-dasharray:none;stroke-opacity:1"
           id="path186" /><path
           d="M 81.102,91.641 79.461,90 l 0.875,-0.875 1.641,1.641 1.64,-1.641 0.891,0.875 -1.641,1.641 1.625,1.656 -0.875,0.875 -1.625,-1.641 -1.64,1.641 -0.891,-0.891 z"
           style="fill:#000000;fill-opacity:1;fill-rule:nonzero;stroke:#ffffff;stroke-width:0.1;stroke-linecap:butt;stroke-linejoin:miter;stroke-miterlimit:10;stroke-dasharray:none;stroke-opacity:1"
           id="path188" /><path
           d="m 92.805,86.812 -1.641,-1.64 0.875,-0.875 1.641,1.641 1.64,-1.641 0.891,0.875 -1.641,1.64 1.625,1.657 -0.875,0.875 -1.625,-1.641 -1.64,1.641 -0.891,-0.891 z"
           style="fill:#000000;fill-opacity:1;fill-rule:nonzero;stroke:none"
           id="path190" /></g></g><g
       id="g192"><g
         id="g194"
         clip-path="url(#clipPath198)"><path
           d="m 92.805,86.812 -1.641,-1.64 0.875,-0.875 1.641,1.641 1.64,-1.641 0.891,0.875 -1.641,1.64 1.625,1.657 -0.875,0.875 -1.625,-1.641 -1.64,1.641 -0.891,-0.891 z"
           style="fill:none;stroke:#ffffff;stroke-width:0.1;stroke-linecap:butt;stroke-linejoin:miter;stroke-miterlimit:10;stroke-dasharray:none;stroke-opacity:1"
           id="path200" /></g></g><g
       id="g202"><path
         d="m 104.512,92.23 -1.641,-1.64 0.875,-0.875 1.641,1.64 1.64,-1.64 0.891,0.875 -1.641,1.64 1.625,1.657 -0.875,0.875 -1.625,-1.641 -1.64,1.641 -0.891,-0.891 z"
         style="fill:#000000;fill-opacity:1;fill-rule:nonzero;stroke:#ffffff;stroke-width:0.1;stroke-linecap:butt;stroke-linejoin:miter;stroke-miterlimit:10;stroke-dasharray:none;stroke-opacity:1"
         id="path204" /><path
         d="m 132.637,129 2.898,-0.965 2.899,-1.14 2.894,-1.333 2.899,-1.531 2.898,-1.742 2.898,-1.937 2.899,-2.125 2.894,-2.278 2.899,-2.39 2.898,-2.45 2.899,-2.453 2.898,-2.398 2.899,-2.289 2.894,-2.137 2.899,-1.957 2.898,-1.758 2.898,-1.551 2.899,-1.347 2.894,-1.157 2.899,-0.984 2.898,-0.824 2.899,-0.688 2.898,-0.566 2.899,-0.469 2.894,-0.386 2.899,-0.313 2.898,-0.254 2.898,-0.211 2.899,-0.168 2.894,-0.133 2.899,-0.113 2.898,-0.086"
         style="fill:none;stroke:#737373;stroke-width:1;stroke-linecap:butt;stroke-linejoin:miter;stroke-miterlimit:10;stroke-dasharray:3, 3;stroke-dashoffset:0;stroke-opacity:1"
         id="path206" /><path
         d="m 132.637,129 2.898,-2.086 2.899,-1.012 2.894,-1.304 2.899,-1.418 2.898,-1.625 2.898,-1.879 2.899,-1.973 2.894,-2.098 2.899,-2.367 2.898,-2.117 2.899,-2.262 2.898,-2.265 2.899,-2.211 2.894,-2.133 2.899,-2.035 2.898,-1.93 2.898,-1.703 2.899,-1.449 2.894,-1.297 2.899,-1.188 2.898,-0.8 2.899,-0.973 2.898,-0.695 2.899,-0.653 2.894,-0.363 2.899,-0.637 2.898,-0.441 2.898,-0.402 2.899,-0.332 2.894,-0.231 2.899,-0.219 2.898,-0.175"
         style="fill:none;stroke:#76b7b2;stroke-width:1.5;stroke-linecap:butt;stroke-linejoin:miter;stroke-miterlimit:10;stroke-dasharray:none;stroke-opacity:0.8"
         id="path208" /></g><g
       id="g210"><g
         id="g212"
         clip-path="url(#clipPath216)"><path
           d="m 132.637,129 2.898,-4.84 2.899,-1.867 2.894,-1.926 2.899,-1.906 2.898,-2.023 2.898,-2.258 2.899,-2.293 2.894,-2.364 2.899,-2.597 2.898,-2.367 2.899,-2.481 2.898,-2.445 2.899,-2.379 2.894,-2.336 2.899,-2.215 2.898,-2.078 2.898,-1.844 2.899,-1.644 2.894,-1.469 2.899,-1.336 2.898,-0.953 2.899,-1.176 2.898,-0.887 2.899,-0.828 2.894,-0.535 2.899,-0.883 2.898,-0.679 2.898,-0.618 2.899,-0.554 2.894,-0.535 2.899,-0.52 2.898,-0.461 V 97.75 l -2.898,-0.113 -2.899,-0.078 -2.894,-0.075 -2.899,0.11 -2.898,0.183 -2.898,0.207 -2.899,0.395 -2.894,0.187 -2.899,0.481 -2.898,0.5 -2.899,0.765 -2.898,0.657 -2.899,1.035 -2.894,1.121 -2.899,1.262 -2.898,1.558 -2.898,1.778 -2.899,1.855 -2.894,1.934 -2.899,2.047 -2.898,2.078 -2.899,2.047 -2.898,1.867 -2.899,2.133 -2.894,1.832 -2.899,1.652 -2.898,1.508 -2.898,1.219 -2.899,0.933 -2.894,0.688 -2.899,0.152 z"
           style="fill:#76b7b2;fill-opacity:0.2;fill-rule:nonzero;stroke:none"
           id="path218" /><path
           d="m 152.039,108.988 -1.641,-1.64 0.875,-0.875 1.641,1.64 1.641,-1.64 0.89,0.875 -1.64,1.64 1.625,1.657 -0.875,0.875 -1.625,-1.641 -1.641,1.641 -0.891,-0.891 z"
           style="fill:#000000;fill-opacity:1;fill-rule:nonzero;stroke:#ffffff;stroke-width:0.1;stroke-linecap:butt;stroke-linejoin:miter;stroke-miterlimit:10;stroke-dasharray:none;stroke-opacity:1"
           id="path220" /><path
           d="m 163.629,90.09 -1.641,-1.641 0.875,-0.875 1.641,1.641 1.641,-1.641 0.89,0.875 -1.64,1.641 1.625,1.656 -0.875,0.875 -1.625,-1.641 -1.641,1.641 -0.891,-0.891 z"
           style="fill:#000000;fill-opacity:1;fill-rule:nonzero;stroke:#ffffff;stroke-width:0.1;stroke-linecap:butt;stroke-linejoin:miter;stroke-miterlimit:10;stroke-dasharray:none;stroke-opacity:1"
           id="path222" /><path
           d="m 175.223,106.719 -1.641,-1.641 0.875,-0.875 1.641,1.641 1.64,-1.641 0.891,0.875 -1.641,1.641 1.625,1.656 -0.875,0.875 -1.625,-1.641 -1.64,1.641 -0.891,-0.891 z"
           style="fill:#000000;fill-opacity:1;fill-rule:nonzero;stroke:#ffffff;stroke-width:0.1;stroke-linecap:butt;stroke-linejoin:miter;stroke-miterlimit:10;stroke-dasharray:none;stroke-opacity:1"
           id="path224" /><path
           d="m 186.812,90.973 -1.64,-1.641 0.875,-0.875 1.641,1.641 1.64,-1.641 0.891,0.875 -1.641,1.641 1.625,1.656 -0.875,0.875 -1.625,-1.641 -1.641,1.641 -0.89,-0.891 z"
           style="fill:#000000;fill-opacity:1;fill-rule:nonzero;stroke:#ffffff;stroke-width:0.1;stroke-linecap:butt;stroke-linejoin:miter;stroke-miterlimit:10;stroke-dasharray:none;stroke-opacity:1"
           id="path226" /><path
           d="m 198.402,91.641 -1.64,-1.641 0.875,-0.875 1.64,1.641 1.641,-1.641 0.891,0.875 -1.641,1.641 1.625,1.656 -0.875,0.875 -1.625,-1.641 -1.641,1.641 -0.89,-0.891 z"
           style="fill:#000000;fill-opacity:1;fill-rule:nonzero;stroke:#ffffff;stroke-width:0.1;stroke-linecap:butt;stroke-linejoin:miter;stroke-miterlimit:10;stroke-dasharray:none;stroke-opacity:1"
           id="path228" /><path
           d="m 209.992,86.812 -1.64,-1.64 0.875,-0.875 1.64,1.641 1.641,-1.641 0.89,0.875 -1.64,1.64 1.625,1.657 -0.875,0.875 -1.625,-1.641 -1.641,1.641 -0.89,-0.891 z"
           style="fill:#000000;fill-opacity:1;fill-rule:nonzero;stroke:none"
           id="path230" /></g></g><g
       id="g232"><g
         id="g234"
         clip-path="url(#clipPath238)"><path
           d="m 209.992,86.812 -1.64,-1.64 0.875,-0.875 1.64,1.641 1.641,-1.641 0.89,0.875 -1.64,1.64 1.625,1.657 -0.875,0.875 -1.625,-1.641 -1.641,1.641 -0.89,-0.891 z"
           style="fill:none;stroke:#ffffff;stroke-width:0.1;stroke-linecap:butt;stroke-linejoin:miter;stroke-miterlimit:10;stroke-dasharray:none;stroke-opacity:1"
           id="path240" /></g></g><g
       id="g242"><path
         d="m 221.586,92.23 -1.641,-1.64 0.875,-0.875 1.641,1.64 1.641,-1.64 0.89,0.875 -1.64,1.64 1.625,1.657 -0.875,0.875 -1.625,-1.641 -1.641,1.641 -0.891,-0.891 z"
         style="fill:#000000;fill-opacity:1;fill-rule:nonzero;stroke:#ffffff;stroke-width:0.1;stroke-linecap:butt;stroke-linejoin:miter;stroke-miterlimit:10;stroke-dasharray:none;stroke-opacity:1"
         id="path244" /><path
         d="m 14.684,68.25 v 2"
         style="fill:none;stroke:#000000;stroke-width:0.5;stroke-linecap:butt;stroke-linejoin:miter;stroke-miterlimit:10;stroke-dasharray:none;stroke-opacity:1"
         id="path246" /><path
         d="m 108.316,68.25 v 2"
         style="fill:none;stroke:#000000;stroke-width:0.5;stroke-linecap:butt;stroke-linejoin:miter;stroke-miterlimit:10;stroke-dasharray:none;stroke-opacity:1"
         id="path248" /><path
         d="m 9.75,63.5 h -2"
         style="fill:none;stroke:#000000;stroke-width:0.5;stroke-linecap:butt;stroke-linejoin:miter;stroke-miterlimit:10;stroke-dasharray:none;stroke-opacity:1"
         id="path250" /><path
         d="m 9.75,18.5 h -2"
         style="fill:none;stroke:#000000;stroke-width:0.5;stroke-linecap:butt;stroke-linejoin:miter;stroke-miterlimit:10;stroke-dasharray:none;stroke-opacity:1"
         id="path252" /><path
         d="m 132.637,68.25 v 2"
         style="fill:none;stroke:#000000;stroke-width:0.5;stroke-linecap:butt;stroke-linejoin:miter;stroke-miterlimit:10;stroke-dasharray:none;stroke-opacity:1"
         id="path254" /><path
         d="m 225.363,68.25 v 2"
         style="fill:none;stroke:#000000;stroke-width:0.5;stroke-linecap:butt;stroke-linejoin:miter;stroke-miterlimit:10;stroke-dasharray:none;stroke-opacity:1"
         id="path256" /><path
         d="m 127.75,63.5 h -2"
         style="fill:none;stroke:#000000;stroke-width:0.5;stroke-linecap:butt;stroke-linejoin:miter;stroke-miterlimit:10;stroke-dasharray:none;stroke-opacity:1"
         id="path258" /><path
         d="m 127.75,18.5 h -2"
         style="fill:none;stroke:#000000;stroke-width:0.5;stroke-linecap:butt;stroke-linejoin:miter;stroke-miterlimit:10;stroke-dasharray:none;stroke-opacity:1"
         id="path260" /><path
         d="m 14.684,138.25 v 2"
         style="fill:none;stroke:#000000;stroke-width:0.5;stroke-linecap:butt;stroke-linejoin:miter;stroke-miterlimit:10;stroke-dasharray:none;stroke-opacity:1"
         id="path262" /><path
         d="m 108.316,138.25 v 2"
         style="fill:none;stroke:#000000;stroke-width:0.5;stroke-linecap:butt;stroke-linejoin:miter;stroke-miterlimit:10;stroke-dasharray:none;stroke-opacity:1"
         id="path264" /><path
         d="m 9.75,133.5 h -2"
         style="fill:none;stroke:#000000;stroke-width:0.5;stroke-linecap:butt;stroke-linejoin:miter;stroke-miterlimit:10;stroke-dasharray:none;stroke-opacity:1"
         id="path266" /><path
         d="m 9.75,88.5 h -2"
         style="fill:none;stroke:#000000;stroke-width:0.5;stroke-linecap:butt;stroke-linejoin:miter;stroke-miterlimit:10;stroke-dasharray:none;stroke-opacity:1"
         id="path268" /><path
         d="m 132.637,138.25 v 2"
         style="fill:none;stroke:#000000;stroke-width:0.5;stroke-linecap:butt;stroke-linejoin:miter;stroke-miterlimit:10;stroke-dasharray:none;stroke-opacity:1"
         id="path270" /><path
         d="m 225.363,138.25 v 2"
         style="fill:none;stroke:#000000;stroke-width:0.5;stroke-linecap:butt;stroke-linejoin:miter;stroke-miterlimit:10;stroke-dasharray:none;stroke-opacity:1"
         id="path272" /><path
         d="m 127.75,133.5 h -2"
         style="fill:none;stroke:#000000;stroke-width:0.5;stroke-linecap:butt;stroke-linejoin:miter;stroke-miterlimit:10;stroke-dasharray:none;stroke-opacity:1"
         id="path274" /><path
         d="m 127.75,88.5 h -2"
         style="fill:none;stroke:#000000;stroke-width:0.5;stroke-linecap:butt;stroke-linejoin:miter;stroke-miterlimit:10;stroke-dasharray:none;stroke-opacity:1"
         id="path276" /><path
         d="m 14.434,68 h 94.132"
         style="fill:none;stroke:#000000;stroke-width:0.5;stroke-linecap:butt;stroke-linejoin:miter;stroke-miterlimit:10;stroke-dasharray:none;stroke-opacity:1"
         id="path278" /><path
         d="M 10,63.75 V 18.25"
         style="fill:none;stroke:#000000;stroke-width:0.5;stroke-linecap:butt;stroke-linejoin:miter;stroke-miterlimit:10;stroke-dasharray:none;stroke-opacity:1"
         id="path280" /><path
         d="m 132.387,68 h 93.226"
         style="fill:none;stroke:#000000;stroke-width:0.5;stroke-linecap:butt;stroke-linejoin:miter;stroke-miterlimit:10;stroke-dasharray:none;stroke-opacity:1"
         id="path282" /><path
         d="M 128,63.75 V 18.25"
         style="fill:none;stroke:#000000;stroke-width:0.5;stroke-linecap:butt;stroke-linejoin:miter;stroke-miterlimit:10;stroke-dasharray:none;stroke-opacity:1"
         id="path284" /><path
         d="m 14.434,138 h 94.132"
         style="fill:none;stroke:#000000;stroke-width:0.5;stroke-linecap:butt;stroke-linejoin:miter;stroke-miterlimit:10;stroke-dasharray:none;stroke-opacity:1"
         id="path286" /><path
         d="M 10,133.75 V 88.25"
         style="fill:none;stroke:#000000;stroke-width:0.5;stroke-linecap:butt;stroke-linejoin:miter;stroke-miterlimit:10;stroke-dasharray:none;stroke-opacity:1"
         id="path288" /><path
         d="m 132.387,138 h 93.226"
         style="fill:none;stroke:#000000;stroke-width:0.5;stroke-linecap:butt;stroke-linejoin:miter;stroke-miterlimit:10;stroke-dasharray:none;stroke-opacity:1"
         id="path290" /><path
         d="M 128,133.75 V 88.25"
         style="fill:none;stroke:#000000;stroke-width:0.5;stroke-linecap:butt;stroke-linejoin:miter;stroke-miterlimit:10;stroke-dasharray:none;stroke-opacity:1"
         id="path292" /></g></g></svg>
